<?xml version="1.0" encoding="utf-8"?>
<!-- Generator: Adobe Illustrator 22.0.0, SVG Export Plug-In . SVG Version: 6.00 Build 0)  -->
<svg version="1.1" id="Layer_1" xmlns="http://www.w3.org/2000/svg" xmlns:xlink="http://www.w3.org/1999/xlink" x="0px" y="0px"
	 viewBox="0 0 346.5 90.9" style="enable-background:new 0 0 346.5 90.9;" xml:space="preserve">
<style type="text/css">
	.st0{opacity:0.3;fill:#8D8D8D;}
</style>
<path class="st0" d="M244.4,4.6h-5.1h-43.8h-19.3v19.3v63h19.3V55.3h43.8v31.5h19.3v-63v-5.1C258.6,10.9,252.2,4.6,244.4,4.6z
	 M239.3,36.1h-43.8V23.8h43.8V36.1z"/>
<path class="st0" d="M156.4,4.6h-5.1h-43.7H88.3v19.3v63h19.3v-63h12.3v63h19.2v-63h12.3v63h19.3v-63v-5.1
	C170.6,10.9,164.2,4.6,156.4,4.6z"/>
<path class="st0" d="M332.4,4.6h-5.1h-43.8h-19.3v19.3v63h19.3V55.3h43.8h19.3V23.8v-5.1C346.6,10.9,340.2,4.6,332.4,4.6z
	 M327.3,36.1h-43.8V23.8h43.8V36.1z"/>
<polygon class="st0" points="82.6,23.8 82.6,4.6 19.6,4.6 0.3,4.6 0.3,23.8 0.3,67.6 0.3,86.8 19.6,86.8 46.6,86.8 82.6,86.8 
	82.6,67.6 46.6,67.6 19.6,67.6 19.6,23.8 "/>
</svg>
