<?xml version="1.0" encoding="utf-8"?>
<!-- Generator: Adobe Illustrator 22.0.0, SVG Export Plug-In . SVG Version: 6.00 Build 0)  -->
<svg version="1.1" id="Layer_5" xmlns="http://www.w3.org/2000/svg" xmlns:xlink="http://www.w3.org/1999/xlink" x="0px" y="0px"
	 viewBox="0 0 80 80" style="enable-background:new 0 0 80 80;" xml:space="preserve">
<style type="text/css">
	.st0{fill:#888888;}
</style>
<path class="st0" d="M23.3,73.3c-3.6,0-7.2-2.3-9.2-4.2c-3.2-3.2-4.8-6.5-4.8-9.7c0.1-3.5,2.1-5.6,2.5-5.9l32.8-33
	c1.9-1.9,3.9-2.8,5.9-2.8c0.1,0,0.2,0,0.3,0c2.7,0.1,4.5,2,4.9,2.3c2.2,2.2,2.6,4.3,2.5,5.6c-0.2,2.7-2,4.4-2.5,4.9L35.5,50.6
	l-2.2-2.2L53.7,28c0.1-0.1,0.2-0.2,0.3-0.3l0.1-0.1l0,0c0.4-0.5,1-1.3,1-2.3c0-1.1-0.5-2.2-1.6-3.3l-0.4-0.4l0,0
	c-0.5-0.4-1.3-1-2.4-1c-1.3,0-2.5,0.6-3.8,1.9L14,55.7c-0.3,0.3-1.5,1.6-1.5,3.8c0,2.3,1.3,4.8,3.9,7.4c0.4,0.3,3.5,3.3,6.9,3.3
	c1.4,0,2.6-0.5,3.7-1.5L64,32c0,0,3.6-3.3,3.7-7.9c0.1-3-1.4-6.1-4.3-9c-0.5-0.5-5.2-5.2-10.3-5.3c-2.2,0-4.1,0.8-5.8,2.5L12.5,47.4
	l-2.2-2.2L45,10.1c2.3-2.3,4.9-3.5,7.8-3.5H53c6.6,0.1,12.2,6,12.4,6.2c3.5,3.5,5.2,7.3,5.1,11.2c-0.2,5.7-4.2,9.6-4.7,10.1L29,70.8
	C27.4,72.5,25.5,73.3,23.3,73.3L23.3,73.3z"/>
</svg>
