<?xml version="1.0" encoding="utf-8"?>
<!-- Generator: Adobe Illustrator 22.0.1, SVG Export Plug-In . SVG Version: 6.00 Build 0)  -->
<svg version="1.1" id="Layer_1" xmlns="http://www.w3.org/2000/svg" xmlns:xlink="http://www.w3.org/1999/xlink" x="0px" y="0px"
	 viewBox="0 0 50 50" style="enable-background:new 0 0 50 50;" xml:space="preserve">
<style type="text/css">
	.st0{fill:#636363;}
</style>
<g>
	<path class="st0" d="M42.7,18.5L26.5,34.6c-0.9,0.9-2.3,0.9-3.1,0l0,0c-0.9-0.9-0.9-2.3,0-3.1l16.1-16.1c0.9-0.9,2.3-0.9,3.1,0l0,0
		C43.5,16.2,43.5,17.6,42.7,18.5z"/>
	<path class="st0" d="M7.3,18.5l16.1,16.1c0.9,0.9,2.3,0.9,3.1,0l0,0c0.9-0.9,0.9-2.3,0-3.1L10.5,15.4c-0.9-0.9-2.3-0.9-3.1,0l0,0
		C6.5,16.2,6.5,17.6,7.3,18.5z"/>
</g>
</svg>
