<?xml version="1.0" encoding="utf-8"?>
<!-- Generator: Adobe Illustrator 22.0.1, SVG Export Plug-In . SVG Version: 6.00 Build 0)  -->
<svg version="1.1" id="Layer_1" xmlns="http://www.w3.org/2000/svg" xmlns:xlink="http://www.w3.org/1999/xlink" x="0px" y="0px"
	 viewBox="0 0 50 50" style="enable-background:new 0 0 50 50;" xml:space="preserve">
<g>
	<path d="M18.4,7.4l16.1,16.1c0.9,0.9,0.9,2.3,0,3.1l0,0c-0.9,0.9-2.3,0.9-3.1,0l-16.2-16c-0.9-0.9-0.9-2.3,0-3.1l0,0
		C16.1,6.6,17.5,6.6,18.4,7.4z"/>
	<path d="M18.4,42.8l16.1-16.1c0.9-0.9,0.9-2.3,0-3.1l0,0c-0.9-0.9-2.3-0.9-3.1,0L15.2,39.7c-0.9,0.9-0.9,2.3,0,3.1l0,0
		C16.1,43.6,17.5,43.6,18.4,42.8z"/>
</g>
</svg>
