<?xml version="1.0" encoding="utf-8"?>
<!-- Generator: Adobe Illustrator 22.0.1, SVG Export Plug-In . SVG Version: 6.00 Build 0)  -->
<svg version="1.1" id="Layer_1" xmlns="http://www.w3.org/2000/svg" xmlns:xlink="http://www.w3.org/1999/xlink" x="0px" y="0px"
	 viewBox="0 0 50 50" style="enable-background:new 0 0 50 50;" xml:space="preserve">
<style type="text/css">
	.st0{fill:#012B5D;}
</style>
<path class="st0" d="M39.2,27.7c0.4-0.4,0.4-1,0-1.4L23.5,10.6c-3.2-3.2-8.3-3.2-11.5,0c-3.2,3.2-3.2,8.3,0,11.5L29.9,40
	c2.4,2.4,6.3,2.4,8.8,0c2.4-2.4,2.4-6.3,0-8.8L23,15.6c-1.7-1.7-4.3-1.7-6,0l0,0c-1.7,1.7-1.7,4.3,0,6L30.4,35c0.4,0.4,1,0.4,1.4,0
	l0,0c0.4-0.4,0.4-1,0-1.4L18.4,20.2c-0.9-0.9-0.9-2.3,0-3.2c0.9-0.9,2.3-0.9,3.2,0l15.6,15.6c1.7,1.7,1.7,4.3,0,6
	c-1.7,1.7-4.3,1.7-6,0L13.3,20.7c-2.4-2.4-2.4-6.3,0-8.8c2.4-2.4,6.3-2.4,8.8,0l15.7,15.7C38.2,28.1,38.8,28.1,39.2,27.7L39.2,27.7z
	"/>
</svg>
