<?xml version="1.0" encoding="utf-8"?>
<!-- Generator: Adobe Illustrator 22.0.1, SVG Export Plug-In . SVG Version: 6.00 Build 0)  -->
<svg version="1.1" id="Layer_1" xmlns="http://www.w3.org/2000/svg" xmlns:xlink="http://www.w3.org/1999/xlink" x="0px" y="0px"
	 viewBox="0 0 50 50" style="enable-background:new 0 0 50 50;" xml:space="preserve">
<style type="text/css">
	.st0{fill:#F8F8F8;}
	.st1{fill:#ACACAC;}
</style>
<path class="st0" d="M42.9,14.1c0-1.5-1.2-2.6-2.6-2.6H9.8c-1.5,0-2.6,1.2-2.6,2.6v4.9h35.7V14.1z"/>
<path class="st1" d="M43.6,19.6H6.4v-5.6c0-1.8,1.5-3.3,3.3-3.3h30.4c1.8,0,3.3,1.5,3.3,3.3V19.6z M7.8,18.2h34.3v-4.2
	c0-1.1-0.9-1.9-1.9-1.9H9.8c-1.1,0-1.9,0.9-1.9,1.9V18.2z"/>
<g>
	<path class="st1" d="M40.2,41.2H9.8c-1.8,0-3.3-1.5-3.3-3.3V18.2h37.1v19.6C43.6,39.7,42.1,41.2,40.2,41.2z M7.8,19.6v18.2
		c0,1.1,0.9,1.9,1.9,1.9h30.4c1.1,0,1.9-0.9,1.9-1.9V19.6H7.8z"/>
</g>
<g>
	<g>
		<path class="st1" d="M17.2,28.2h-4.6c-0.1,0-0.2-0.1-0.2-0.2v-3V24c0-0.1,0.1-0.2,0.2-0.2h4.6c0.1,0,0.2,0.1,0.2,0.2V28
			C17.4,28.2,17.4,28.2,17.2,28.2z"/>
		<path class="st1" d="M17.2,35.6h-4.6c-0.1,0-0.2-0.1-0.2-0.2v-3v-1.1c0-0.1,0.1-0.2,0.2-0.2h4.6c0.1,0,0.2,0.1,0.2,0.2v4.1
			C17.4,35.5,17.4,35.6,17.2,35.6z"/>
	</g>
	<g>
		<path class="st1" d="M27.3,28.2h-4.6c-0.1,0-0.2-0.1-0.2-0.2v-3V24c0-0.1,0.1-0.2,0.2-0.2h4.6c0.1,0,0.2,0.1,0.2,0.2V28
			C27.5,28.2,27.4,28.2,27.3,28.2z"/>
		<path class="st1" d="M27.3,35.6h-4.6c-0.1,0-0.2-0.1-0.2-0.2v-3v-1.1c0-0.1,0.1-0.2,0.2-0.2h4.6c0.1,0,0.2,0.1,0.2,0.2v4.1
			C27.5,35.5,27.4,35.6,27.3,35.6z"/>
	</g>
	<g>
		<path class="st1" d="M37.3,28.2h-4.6c-0.1,0-0.2-0.1-0.2-0.2v-3V24c0-0.1,0.1-0.2,0.2-0.2h4.6c0.1,0,0.2,0.1,0.2,0.2V28
			C37.5,28.2,37.5,28.2,37.3,28.2z"/>
		<path class="st1" d="M37.3,35.6h-4.6c-0.1,0-0.2-0.1-0.2-0.2v-3v-1.1c0-0.1,0.1-0.2,0.2-0.2h4.6c0.1,0,0.2,0.1,0.2,0.2v4.1
			C37.5,35.5,37.5,35.6,37.3,35.6z"/>
	</g>
</g>
<g>
	<path class="st1" d="M15.9,14.2h-0.2c-0.6,0-1.1-0.5-1.1-1.1V9.8c0-0.6,0.5-1.1,1.1-1.1h0.2c0.6,0,1.1,0.5,1.1,1.1v3.3
		C17,13.7,16.5,14.2,15.9,14.2z"/>
	<path class="st1" d="M34.3,14.2h-0.2c-0.6,0-1.1-0.5-1.1-1.1V9.8c0-0.6,0.5-1.1,1.1-1.1h0.2c0.6,0,1.1,0.5,1.1,1.1v3.3
		C35.3,13.7,34.9,14.2,34.3,14.2z"/>
</g>
</svg>
