<?xml version="1.0" encoding="utf-8"?>
<!-- Generator: Adobe Illustrator 22.0.1, SVG Export Plug-In . SVG Version: 6.00 Build 0)  -->
<svg version="1.1" id="Layer_1" xmlns="http://www.w3.org/2000/svg" xmlns:xlink="http://www.w3.org/1999/xlink" x="0px" y="0px"
	 viewBox="0 0 50 50" style="enable-background:new 0 0 50 50;" xml:space="preserve">
<style type="text/css">
	.st0{fill:#919191;}
</style>
<g>
	<path class="st0" d="M26.2,7.5V4.1h-2.5v3.4C15.1,8.2,8.2,15.1,7.5,23.8H4.1v2.5h3.4c0.6,8.7,7.5,15.6,16.2,16.2v3.4h2.5v-3.4
		c8.7-0.6,15.6-7.5,16.2-16.2h3.4v-2.5h-3.4C41.8,15.1,34.9,8.2,26.2,7.5z M23.8,39.9c-7.3-0.6-13.1-6.4-13.7-13.7h5.4
		c0.6,4.3,4,7.8,8.3,8.3V39.9z M23.8,32.1c-3-0.5-5.3-2.8-5.8-5.8h5.8V32.1z M23.8,23.8h-5.8c0.5-3,2.8-5.3,5.8-5.8V23.8z
		 M23.8,15.4c-4.3,0.6-7.8,4-8.3,8.3h-5.4c0.6-7.3,6.4-13.1,13.7-13.7V15.4z M26.2,17.9c3,0.5,5.3,2.8,5.8,5.8h-5.8V17.9z
		 M26.2,26.2h5.8c-0.5,3-2.8,5.3-5.8,5.8V26.2z M26.2,39.9v-5.4c4.3-0.6,7.8-4,8.3-8.3h5.4C39.3,33.5,33.5,39.3,26.2,39.9z
		 M34.6,23.8c-0.6-4.3-4-7.8-8.3-8.3v-5.4c7.3,0.6,13.1,6.4,13.7,13.7H34.6z"/>
</g>
</svg>
