<?xml version="1.0" encoding="utf-8"?>
<!-- Generator: Adobe Illustrator 22.0.1, SVG Export Plug-In . SVG Version: 6.00 Build 0)  -->
<svg version="1.1" id="Layer_5" xmlns="http://www.w3.org/2000/svg" xmlns:xlink="http://www.w3.org/1999/xlink" x="0px" y="0px"
	 viewBox="0 0 80 80" style="enable-background:new 0 0 80 80;" xml:space="preserve">
<style type="text/css">
	.st0{fill:#FFFFFF;}
</style>
<g>
	<path class="st0" d="M69.8,10.2c-1.3-1.3-3.7-1.3-5,0L40,35L15.2,10.2c-1.3-1.3-3.7-1.3-5,0c-1.4,1.4-1.4,3.6,0,5L35,40L10.2,64.8
		c-1.4,1.4-1.4,3.6,0,5c1.3,1.3,3.7,1.3,5,0L40,45l24.8,24.8c0.7,0.7,1.6,1,2.5,1c1,0,1.8-0.4,2.5-1c1.4-1.4,1.4-3.6,0-5L45,40
		l24.8-24.8C71.2,13.8,71.2,11.5,69.8,10.2z"/>
</g>
</svg>
