<?xml version="1.0" encoding="utf-8"?>
<!-- Generator: Adobe Illustrator 22.0.1, SVG Export Plug-In . SVG Version: 6.00 Build 0)  -->
<svg version="1.1" id="Layer_1" xmlns="http://www.w3.org/2000/svg" xmlns:xlink="http://www.w3.org/1999/xlink" x="0px" y="0px"
	 viewBox="0 0 50 50" style="enable-background:new 0 0 50 50;" xml:space="preserve">
<style type="text/css">
	.st0{fill:url(#SVGID_1_);}
	.st1{fill:url(#SVGID_2_);}
</style>
<g>
	<linearGradient id="SVGID_1_" gradientUnits="userSpaceOnUse" x1="27.1523" y1="25" x2="42.751" y2="25">
		<stop  offset="0" style="stop-color:#0092D3"/>
		<stop  offset="1" style="stop-color:#29ACE3"/>
	</linearGradient>
	<polygon class="st0" points="27.2,43 27.2,6.3 28.6,6.3 34.7,8.9 34.7,39.5 37.8,38 37.8,15.7 39.1,15.7 42.8,18.1 42.8,37 
		41.8,37.7 41.8,18.6 39.3,17.2 39.3,39 34.5,41.4 33.2,40.9 33.2,10 28.8,8.1 28.8,43.7 	"/>
	<linearGradient id="SVGID_2_" gradientUnits="userSpaceOnUse" x1="7.249" y1="25.0801" x2="22.7966" y2="25.0801">
		<stop  offset="0" style="stop-color:#1F295C"/>
		<stop  offset="1" style="stop-color:#111846"/>
	</linearGradient>
	<polygon class="st1" points="7.4,35.4 7.2,35.4 7.2,22.4 21.4,9.3 22.8,10.2 22.8,32.8 21.2,32.8 21.2,12.1 8.6,22.9 8.6,34.4 
		22.3,39.4 21.7,40.8 	"/>
</g>
</svg>
