<?xml version="1.0" encoding="utf-8"?>
<!-- Generator: Adobe Illustrator 22.0.1, SVG Export Plug-In . SVG Version: 6.00 Build 0)  -->
<svg version="1.1" id="Layer_1" xmlns="http://www.w3.org/2000/svg" xmlns:xlink="http://www.w3.org/1999/xlink" x="0px" y="0px"
	 viewBox="0 0 50 50" style="enable-background:new 0 0 50 50;" xml:space="preserve">
<style type="text/css">
	.st0{fill:#00AAE4;}
	.st1{fill:#FFFFFF;}
	.st2{fill:#333333;}
</style>
<g>
	<g>
		<path class="st0" d="M38.9,38.5H11.1c-2.5,0-4.6-2-4.6-4.6V11.9c0-2.5,2-4.6,4.6-4.6h9.8c2.3,0,4.3,1.8,4.5,4.1h13.4
			c2.5,0,4.6,2,4.6,4.6v18C43.4,36.5,41.4,38.5,38.9,38.5z M11.1,9.9c-1.1,0-2,0.9-2,2V34c0,1.1,0.9,2,2,2h27.7c1.1,0,2-0.9,2-2v-18
			c0-1.1-0.9-2-2-2H22.9v-2.1c0-1.1-0.9-2-2-2H11.1z"/>
	</g>
	<g>
		<path class="st1" d="M44.6,39c0,1.6-1.3,2.9-2.9,2.9H8.3c-1.6,0-2.9-1.3-2.9-2.9V19.6c0-1.6,1.3-2.9,2.9-2.9h33.3
			c1.6,0,2.9,1.3,2.9,2.9V39z"/>
		<path class="st2" d="M41.7,42.7H8.3c-2,0-3.7-1.6-3.7-3.7V19.6c0-2,1.6-3.7,3.7-3.7h33.3c2,0,3.7,1.6,3.7,3.7V39
			C45.3,41,43.7,42.7,41.7,42.7z M8.3,17.5c-1.2,0-2.1,1-2.1,2.1V39c0,1.2,1,2.1,2.1,2.1h33.3c1.2,0,2.1-1,2.1-2.1V19.6
			c0-1.2-1-2.1-2.1-2.1H8.3z"/>
	</g>
</g>
</svg>
