<?xml version="1.0" encoding="utf-8"?>
<!-- Generator: Adobe Illustrator 22.0.1, SVG Export Plug-In . SVG Version: 6.00 Build 0)  -->
<svg version="1.1" id="Layer_5" xmlns="http://www.w3.org/2000/svg" xmlns:xlink="http://www.w3.org/1999/xlink" x="0px" y="0px"
	 viewBox="0 0 80 80" style="enable-background:new 0 0 80 80;" xml:space="preserve">
<style type="text/css">
	.st0{fill:#FFFFFF;}
</style>
<g>
	<g>
		<g>
			<path class="st0" d="M68.4,75H16.6c-0.8,0-1.4-0.6-1.4-1.4V6.4c0-0.8,0.6-1.4,1.4-1.4h51.8c0.8,0,1.4,0.6,1.4,1.4v67.2
				C69.7,74.4,69.1,75,68.4,75z M18,72.2h49V7.8H18V72.2z"/>
		</g>
		<g>
			<g>
				<rect x="10.3" y="11.8" class="st0" width="10" height="6.4"/>
			</g>
			<g>
				<rect x="10.3" y="36.8" class="st0" width="10" height="6.4"/>
			</g>
			<g>
				<rect x="10.3" y="61.8" class="st0" width="10" height="6.4"/>
			</g>
		</g>
	</g>
	<g>
		<g>
			<g>
				<polygon class="st0" points="31.1,31.9 25.9,26.7 27.9,24.7 31.1,28 38.3,20.8 40.3,22.7 				"/>
			</g>
			<g>
				<g>
					<rect x="43.3" y="23.6" class="st0" width="17" height="2.7"/>
				</g>
				<g>
					<rect x="43.3" y="29" class="st0" width="17" height="2.7"/>
				</g>
			</g>
		</g>
		<g>
			<g>
				<polygon class="st0" points="31.1,58.4 25.9,53.2 27.9,51.2 31.1,54.5 38.3,47.3 40.3,49.2 				"/>
			</g>
			<g>
				<g>
					<rect x="43.3" y="50.1" class="st0" width="17" height="2.7"/>
				</g>
				<g>
					<rect x="43.3" y="55.5" class="st0" width="17" height="2.7"/>
				</g>
			</g>
		</g>
	</g>
</g>
</svg>
