<?xml version="1.0" encoding="utf-8"?>
<!-- Generator: Adobe Illustrator 22.0.0, SVG Export Plug-In . SVG Version: 6.00 Build 0)  -->
<svg version="1.1" id="Layer_5" xmlns="http://www.w3.org/2000/svg" xmlns:xlink="http://www.w3.org/1999/xlink" x="0px" y="0px"
	 viewBox="0 0 80 80" style="enable-background:new 0 0 80 80;" xml:space="preserve">
<style type="text/css">
	.st0{fill:#FFFFFF;}
	.st1{fill:#026EB9;}
	.st2{fill:#F3283B;}
</style>
<circle class="st0" cx="40" cy="40" r="32.1"/>
<circle class="st1" cx="38.7" cy="46.8" r="6.2"/>
<path class="st2" d="M36.5,36.8c15.8,0,25.9,6,30.4,11.4c-5.2-9.1-14-17.3-32.2-17.3C3.5,30.9,6.9,56.2,26.9,54
	C11.1,52.3,13.1,36.8,36.5,36.8z"/>
<path class="st1" d="M53.4,39.1c0,19.6-1.5,22.7-9.4,28.2C55.5,65.3,59,53.2,59,38C60,9,33.7,10.2,35.9,30.3
	C37.5,14.4,53.4,18.5,53.4,39.1z"/>
</svg>
