<?xml version="1.0" encoding="utf-8"?>
<!-- Generator: Adobe Illustrator 22.0.1, SVG Export Plug-In . SVG Version: 6.00 Build 0)  -->
<svg version="1.1" id="Layer_1" xmlns="http://www.w3.org/2000/svg" xmlns:xlink="http://www.w3.org/1999/xlink" x="0px" y="0px"
	 viewBox="0 0 50 50" style="enable-background:new 0 0 50 50;" xml:space="preserve">
<style type="text/css">
	.st0{fill:#EDEDED;}
	.st1{fill:#FFFFFF;}
	.st2{fill:#3F3B39;}
	.st3{fill:#00AAE4;}
</style>
<g>
	<circle class="st0" cx="26.3" cy="26.2" r="17.7"/>
	<circle class="st1" cx="26.3" cy="26.2" r="12.7"/>
	<path class="st2" d="M26.4,44.8c-4.9,0-9.5-1.9-13-5.4c-7.1-7.1-7.1-18.8,0-25.9c3.5-3.5,8.1-5.4,13-5.4c4.9,0,9.5,1.9,13,5.4
		c7.1,7.1,7.1,18.8,0,25.9C35.9,42.8,31.3,44.8,26.4,44.8C26.4,44.8,26.4,44.8,26.4,44.8z M26.4,10.2c-4.3,0-8.4,1.7-11.4,4.7
		c-6.3,6.3-6.3,16.6,0,22.9c3.1,3.1,7.1,4.7,11.4,4.7c4.3,0,8.4-1.7,11.4-4.7c3.1-3.1,4.7-7.1,4.7-11.4S40.9,18,37.9,15
		C34.8,11.9,30.7,10.2,26.4,10.2z"/>
	<path class="st2" d="M35.7,17.1c-2.5-2.5-5.8-3.9-9.3-3.9c-3.5,0-6.8,1.4-9.3,3.9c-2.5,2.5-3.9,5.8-3.9,9.3c0,3.5,1.4,6.8,3.9,9.3
		c2.5,2.5,5.8,3.9,9.3,3.9c0,0,0,0,0,0c3.5,0,6.8-1.4,9.3-3.9C40.9,30.6,40.9,22.2,35.7,17.1z M35.1,35.1c-2.3,2.3-5.4,3.6-8.6,3.6
		c0,0,0,0,0,0c-3.3,0-6.3-1.3-8.6-3.6c-2.3-2.3-3.6-5.4-3.6-8.6c0-3.3,1.3-6.3,3.6-8.6c2.3-2.3,5.4-3.6,8.6-3.6
		c3.3,0,6.3,1.3,8.6,3.6C39.8,22.5,39.8,30.3,35.1,35.1z"/>
	<rect x="4.6" y="8.9" transform="matrix(0.7071 -0.7071 0.7071 0.7071 -4.2958 10.3771)" class="st2" width="11.6" height="2.9"/>
	<path class="st3" d="M20.4,32.5l9.1-3l3-9.1l-9.1,3L20.4,32.5z M28.7,28.7L21.9,31l2.3-6.8L28.7,28.7z"/>
</g>
</svg>
