<?xml version="1.0" encoding="utf-8"?>
<!-- Generator: Adobe Illustrator 22.0.1, SVG Export Plug-In . SVG Version: 6.00 Build 0)  -->
<svg version="1.1" id="Layer_1" xmlns="http://www.w3.org/2000/svg" xmlns:xlink="http://www.w3.org/1999/xlink" x="0px" y="0px"
	 viewBox="0 0 50 50" style="enable-background:new 0 0 50 50;" xml:space="preserve">
<style type="text/css">
	.st0{fill:#EDEDED;}
	.st1{fill:none;}
	.st2{fill:#FFFFFF;}
	.st3{fill:#303030;}
	.st4{fill:none;stroke:#00AAE4;stroke-width:2.5;stroke-linecap:round;stroke-linejoin:round;stroke-miterlimit:10;}
</style>
<g>
	<path class="st0" d="M33.5,11.1l5.5,5.5L20.7,34.8l-5.4,0.6l0-6.2C15.4,29.2,33.7,10.9,33.5,11.1z"/>
	<polygon class="st1" points="29.1,25.7 38.1,16.7 36.3,15 25.6,25.7 	"/>
	<path class="st1" d="M20.5,28.9c0-0.1,0-0.3,0-0.4c0-1.5,1.3-2.8,2.8-2.8h0.4L35.4,14l-1.7-1.7L21.7,24.2l-0.4,1.1
		c-0.2,0.7-0.7,1.3-1.4,1.6c-0.4,0.2-0.8,0.3-1.2,0.3L16.9,29l1.7,1.7L20.5,28.9z"/>
	<path class="st1" d="M21.1,30.3l-1.4,1.4l1.7,1.7l2.1-2.1h-0.3C22.4,31.3,21.6,30.9,21.1,30.3z"/>
	<polygon class="st1" points="16.3,34 20,34 16.3,30.4 	"/>
	<polygon class="st2" points="21.1,34.5 21.8,33.8 21.7,33.8 21,34.5 	"/>
	<g>
		<rect x="9.7" y="37.3" class="st3" width="14.4" height="0.9"/>
		<rect x="5.1" y="37.3" class="st3" width="3.9" height="0.9"/>
	</g>
	<g>
		<polygon class="st4" points="15.4,29.2 33.5,11.1 39.2,16.7 21,34.9 		"/>
		<line class="st4" x1="18.2" y1="32.1" x2="36.4" y2="14"/>
		<polygon class="st4" points="15.4,29.2 15.4,35.3 21,34.9 		"/>
	</g>
	<path class="st3" d="M23,13.7c-0.2-0.1-0.4-0.2-0.6-0.3c-0.7-0.2-1.5-0.2-2.1,0.1c-0.7,0.3-1.2,0.9-1.4,1.6L16,23.6
		c-0.2,0.7-0.2,1.5,0.1,2.1c0.2,0.5,0.6,0.8,1,1.1c0.2,0.1,0.4,0.2,0.6,0.3c0.3,0.1,0.6,0.1,0.9,0.1c0,0,0,0,0,0
		c0.4,0,0.8-0.1,1.2-0.3c0.7-0.3,1.2-0.9,1.4-1.6l0.4-1.1l0.3-0.8l0.8-2.6l5.6-5.6L23,13.7z"/>
	<path class="st2" d="M22,20.8L21.2,22l-1,3c-0.1,0.2-0.2,0.4-0.3,0.6c-0.1,0.2-0.3,0.3-0.5,0.4c-0.4,0.2-0.8,0.2-1.2,0.1
		c0,0-0.1,0-0.1-0.1c-0.4-0.1-0.6-0.4-0.8-0.8c-0.2-0.4-0.2-0.8-0.1-1.2l2.8-8.4c0.1-0.4,0.4-0.7,0.8-0.9c0.2-0.1,0.5-0.2,0.7-0.2
		c0,0,0,0,0,0c0.2,0,0.3,0,0.5,0.1c0.2,0.1,0.6,0.3,0.6,0.3l1.6,0.5l2.5,0.8l-3.9,3.7L22,20.8z"/>
	<path class="st3" d="M33.4,23.4c-0.2,0.2-2.5,2.5-2.5,2.5l-8.5-0.1c-1.5,0-2.8,1.3-2.8,2.8c0,0.1,0,0.3,0,0.4
		c0.1,0.5,0.3,1,0.6,1.4c0.5,0.6,1.3,1,2.2,1h0.3l2.7,0l-1.8,1.8l-0.7,0.7l-1,1l-0.2,0.2c-0.2,0.1-0.2,0.2-0.2,0.2
		c3.9,1.9,6.9,1.1,8,1c3,2.3,6.5,2.6,8.3,2.6c0.6,0,1.1,0,1.2-0.1h6V26.1h-2.8L36,20.8l-0.6,0.6C35.5,21.3,33.8,23,33.4,23.4z"/>
	<path class="st2" d="M43.7,37.7h-4.8l-0.1,0c0,0-5,0.6-8.9-2.5l-0.2-0.2l-0.3,0c0,0-3.4,1-6.5-0.3l2.3-2.4h4c0.2,0,1,0.1,1.5-0.4
		c0.2-0.1,0.3-0.3,0.5-0.6c0.1-0.2,0.2-0.4,0.2-0.7l0-0.2l-0.2-0.3c0,0-0.1,0-0.1,0H30h-4.2h-2h-1.4c-0.5,0-1-0.3-1.3-0.7
		c-0.2-0.3-0.3-0.6-0.3-0.9c0-0.9,0.7-1.6,1.6-1.6h1.2H27h0.9H29h1.9l2.1-2.2l2.8-2.8l5.9,5.2h2V37.7z"/>
</g>
</svg>
