<?xml version="1.0" encoding="utf-8"?>
<!-- Generator: Adobe Illustrator 22.0.0, SVG Export Plug-In . SVG Version: 6.00 Build 0)  -->
<svg version="1.1" id="Layer_5" xmlns="http://www.w3.org/2000/svg" xmlns:xlink="http://www.w3.org/1999/xlink" x="0px" y="0px"
	 viewBox="0 0 80 80" style="enable-background:new 0 0 80 80;" xml:space="preserve">
<style type="text/css">
	.st0{fill:#888888;}
	.st1{fill:#FFFFFF;}
</style>
<path class="st0" d="M35.3,4.9C19.5,4.9,6.6,17.8,6.6,33.6s12.9,28.7,28.7,28.7S64,49.5,64,33.6C64,17.8,51.1,4.9,35.3,4.9z M9.4,35
	H20c0.1,3.9,0.6,7.7,1.4,11h-8.9C10.7,42.7,9.6,39,9.4,35z M36.7,18.4V7.9c3.5,0.8,6.7,4.8,8.7,10.6h-8.7V18.4z M46.3,21.2
	c0.9,3.3,1.5,7.1,1.6,11H36.7v-11H46.3z M33.9,7.9v10.6h-8.7C27.2,12.7,30.4,8.7,33.9,7.9z M33.9,21.2v11H22.8
	c0.1-3.9,0.7-7.7,1.6-11H33.9z M20,32.2H9.4c0.2-4,1.3-7.7,3.1-11h8.9C20.6,24.6,20.1,28.3,20,32.2z M22.8,35h11.1v11h-9.6
	C23.4,42.7,22.9,39,22.8,35z M33.9,48.8v10.6c-3.5-0.8-6.7-4.8-8.7-10.6C25.2,48.8,33.9,48.8,33.9,48.8z M36.7,59.4V48.8h8.7
	C43.3,54.5,40.2,58.5,36.7,59.4z M36.7,46V35h11.1c-0.1,3.9-0.7,7.7-1.6,11H36.7z M50.6,35h10.5c-0.2,4-1.3,7.7-3.1,11h-8.9
	C50,42.7,50.5,39,50.6,35z M50.6,32.2c-0.1-3.9-0.6-7.7-1.4-11H58c1.8,3.3,2.9,7,3.1,11H50.6z M56.3,18.4h-7.9
	c-1.3-3.9-3-7.1-5.1-9.5C48.5,10.7,53.1,14.1,56.3,18.4z M27.3,9c-2.1,2.3-3.8,5.6-5.1,9.5h-7.9C17.5,14.1,22,10.7,27.3,9z
	 M14.3,48.8h7.9c1.3,3.9,3,7.1,5.1,9.5C22,56.6,17.5,53.2,14.3,48.8z M43.3,58.3c2.1-2.3,3.8-5.6,5.1-9.5h7.9
	C53.1,53.2,48.5,56.6,43.3,58.3z"/>
<path class="st1" d="M71,49.8c-1.3,0-2.4,1.1-2.4,2.4v0.6h-0.1V51c0-1.3-1.1-2.4-2.4-2.4c-1.3,0-2.4,1.1-2.4,2.4
	c0-1.3-1.1-2.4-2.4-2.4s-2.4,1.1-2.4,2.4v1.8h-0.1V40.4c0-1.3-1.1-2.4-2.4-2.4C55,38,54,39.1,54,40.4v12.4v3.3v4.5l-3.7-3.7
	c-0.9-1.2-2.6-1.5-3.8-0.6c-1.2,0.9-1.5,2.6-0.6,3.8c0,0,6.7,9.5,8.6,11.2c2.2,2.1,5.5,3.7,8,3.7h1c4.7,0,9.9-3.7,9.9-7.9v-11v-3.3
	v-0.6C73.4,50.9,72.3,49.8,71,49.8z"/>
<path class="st0" d="M71,48.3c-0.6,0-1.2,0.2-1.7,0.4c-0.7-1-1.9-1.6-3.2-1.6c-0.9,0-1.7,0.3-2.4,0.9c-0.7-0.5-1.5-0.9-2.4-0.9
	c-0.3,0-0.7,0.1-1,0.2v-6.9c0-2.1-1.8-3.9-3.9-3.9c-2.2,0-3.9,1.7-3.9,3.9v12.4v3.3V57l-1.1-1.1c-0.7-0.8-1.6-1.4-2.7-1.6
	c-1.1-0.2-2.2,0.1-3.2,0.8c-0.9,0.7-1.5,1.6-1.7,2.7C43.7,59,44,60.1,44.7,61c0.7,1,6.9,9.7,8.8,11.4c2.6,2.5,6.2,4.1,9,4.1h1
	c5.3,0,11.4-4.1,11.4-9.4v-11v-3.3v-0.6C74.9,50.1,73.1,48.3,71,48.3z M71.9,67.1c0,3.1-4.3,6.4-8.4,6.4h-1c-2,0-5-1.4-7-3.3
	c-1.3-1.2-5.7-7.2-8.4-11c-0.2-0.2-0.3-0.6-0.2-0.9c0.1-0.3,0.2-0.6,0.5-0.8c0.2-0.2,0.6-0.3,0.9-0.2c0.3,0.1,0.6,0.2,0.8,0.5
	c0,0.1,0.1,0.1,0.1,0.2l3.7,3.7c0.4,0.4,1.1,0.6,1.6,0.3c0.6-0.2,0.9-0.8,0.9-1.4v-4.5v-3.3V40.4c0-0.4,0.3-0.9,0.9-0.9
	c0.5,0,0.9,0.4,0.9,0.9v15.7c0,0.8,0.7,1.5,1.5,1.5c0,0,0,0,0.1,0c0,0,0,0,0.1,0c0.8,0,1.5-0.7,1.5-1.5V51c0-0.5,0.4-0.9,0.9-0.9
	c0.5,0,0.9,0.4,0.9,0.9v5.1c0,0.8,0.7,1.5,1.5,1.5s1.5-0.7,1.5-1.5V51c0-0.5,0.4-0.9,0.9-0.9c0.5,0,0.9,0.4,0.9,0.9v5.1
	c0,0.8,0.7,1.5,1.5,1.5c0,0,0,0,0,0c0,0,0,0,0,0c0.8,0,1.5-0.7,1.5-1.5v-3.9c0-0.5,0.4-0.9,0.9-0.9s0.9,0.4,0.9,0.9v0.6v3.3V67.1z"
	/>
</svg>
