<?xml version="1.0" encoding="utf-8"?>
<!-- Generator: Adobe Illustrator 22.0.1, SVG Export Plug-In . SVG Version: 6.00 Build 0)  -->
<svg version="1.1" id="Layer_1" xmlns="http://www.w3.org/2000/svg" xmlns:xlink="http://www.w3.org/1999/xlink" x="0px" y="0px"
	 viewBox="0 0 50 50" style="enable-background:new 0 0 50 50;" xml:space="preserve">
<style type="text/css">
	.st0{fill:#FFFFFF;}
	.st1{fill:none;stroke:#3364AE;stroke-miterlimit:10;}
	.st2{fill:#333333;}
	.st3{fill:#00AAE4;}
</style>
<g>
	<circle class="st0" cx="25" cy="24.7" r="16.4"/>
	<path class="st1" d="M25,45"/>
	<g>
		<path class="st2" d="M25.1,42.2c-9.6,0-17.4-7.8-17.4-17.4S15.6,7.5,25.1,7.5s17.4,7.8,17.4,17.4S34.7,42.2,25.1,42.2z M25.1,9.2
			c-8.6,0-15.6,7-15.6,15.6s7,15.6,15.6,15.6s15.6-7,15.6-15.6S33.8,9.2,25.1,9.2z"/>
		<g>
			<path class="st2" d="M25,5"/>
			<rect x="24.1" y="5" class="st2" width="1.7" height="3.8"/>
			<rect x="24.1" y="40.8" class="st2" width="1.7" height="4.2"/>
		</g>
		<g>
			<rect x="41.4" y="24.1" class="st2" width="3.6" height="1.7"/>
			<rect x="5" y="24.1" class="st2" width="3.9" height="1.7"/>
		</g>
	</g>
	<g>
		<path class="st3" d="M25,26c-2.6,0-4.7-2.3-4.7-5.1s2.1-5.1,4.7-5.1s4.7,2.3,4.7,5.1S27.6,26,25,26z M25,16.9c-2,0-3.6,1.8-3.6,4
			s1.6,4,3.6,4s3.6-1.8,3.6-4S27,16.9,25,16.9z"/>
		<path class="st3" d="M33.8,33.2h-1.2c0-3.9-3.4-7.1-7.7-7.1s-7.7,3.2-7.7,7.1h-1.2c0-4.6,4-8.3,8.8-8.3S33.8,28.7,33.8,33.2z"/>
	</g>
</g>
</svg>
