<?xml version="1.0" encoding="utf-8"?>
<!-- Generator: Adobe Illustrator 22.0.0, SVG Export Plug-In . SVG Version: 6.00 Build 0)  -->
<svg version="1.1" id="Layer_1" xmlns="http://www.w3.org/2000/svg" xmlns:xlink="http://www.w3.org/1999/xlink" x="0px" y="0px"
	 viewBox="0 0 33.5 11.3" style="enable-background:new 0 0 33.5 11.3;" xml:space="preserve">
<style type="text/css">
	.st0{opacity:0.4;fill:#595959;}
	.st1{fill:#DADADA;}
</style>
<g>
	<circle class="st0" cx="16.8" cy="5.6" r="2.9"/>
	<circle class="st0" cx="6" cy="5.6" r="2.9"/>
	<circle class="st0" cx="27.5" cy="5.6" r="2.9"/>
	<path class="st1" d="M6,1.5c-2.3,0-4.1,1.8-4.1,4.1S3.7,9.7,6,9.7s4.1-1.8,4.1-4.1S8.3,1.5,6,1.5z M6,8.5c-1.6,0-2.9-1.3-2.9-2.9
		S4.4,2.7,6,2.7S8.9,4,8.9,5.6S7.6,8.5,6,8.5z"/>
	<path class="st1" d="M16.8,1.5c-2.3,0-4.1,1.8-4.1,4.1s1.8,4.1,4.1,4.1s4.1-1.8,4.1-4.1S19,1.5,16.8,1.5z M16.8,8.5
		c-1.6,0-2.9-1.3-2.9-2.9s1.3-2.9,2.9-2.9s2.9,1.3,2.9,2.9S18.3,8.5,16.8,8.5z"/>
	<path class="st1" d="M27.5,1.5c-2.3,0-4.1,1.8-4.1,4.1s1.8,4.1,4.1,4.1s4.1-1.8,4.1-4.1S29.8,1.5,27.5,1.5z M27.5,8.5
		c-1.6,0-2.9-1.3-2.9-2.9s1.3-2.9,2.9-2.9s2.9,1.3,2.9,2.9S29.1,8.5,27.5,8.5z"/>
</g>
</svg>
