<?xml version="1.0" encoding="utf-8"?>
<!-- Generator: Adobe Illustrator 22.0.0, SVG Export Plug-In . SVG Version: 6.00 Build 0)  -->
<svg version="1.1" id="Layer_1" xmlns="http://www.w3.org/2000/svg" xmlns:xlink="http://www.w3.org/1999/xlink" x="0px" y="0px"
	 viewBox="0 0 50 50" style="enable-background:new 0 0 50 50;" xml:space="preserve">
<style type="text/css">
	.st0{fill:#B3DEF2;}
	.st1{clip-path:url(#SVGID_2_);fill:url(#SVGID_3_);}
	.st2{fill:#EDEDED;}
	.st3{fill:#3F3B39;}
	.st4{fill:#00AAE4;}
	.st5{fill:#FFFFFF;}
</style>
<g>
	
		<ellipse transform="matrix(2.485224e-02 -0.9997 0.9997 2.485224e-02 -0.6138 49.3712)" class="st0" cx="25" cy="25" rx="25" ry="25"/>
</g>
<g>
	<defs>
		
			<ellipse id="SVGID_1_" transform="matrix(2.485224e-02 -0.9997 0.9997 2.485224e-02 -0.6138 49.3712)" cx="25" cy="25" rx="25" ry="25"/>
	</defs>
	<clipPath id="SVGID_2_">
		<use xlink:href="#SVGID_1_"  style="overflow:visible;"/>
	</clipPath>
	<linearGradient id="SVGID_3_" gradientUnits="userSpaceOnUse" x1="8.0931" y1="7.0743" x2="44.8796" y2="50.3709">
		<stop  offset="0.3368" style="stop-color:#B6E4F9"/>
		<stop  offset="0.7428" style="stop-color:#DAF0FC"/>
	</linearGradient>
	<path class="st1" d="M53.5,36.3L38.6,14.1l-27,23.1l13.4,18.5C24.9,55.7,39.4,46.9,53.5,36.3z"/>
</g>
<g>
	<path class="st2" d="M37.6,14.4h-6.7c-0.2,0-0.4,0.1-0.6,0.3l-2.7,2.7c-0.1,0.2-0.3,0.3-0.6,0.3H12.3c-0.4,0-0.7,0.3-0.7,0.7v18
		c0,0.4,0.3,0.7,0.7,0.7h24.9c0.4,0,0.7-0.3,0.7-0.7l0.4-21.3C38.3,14.8,38,14.4,37.6,14.4z"/>
	<path class="st3" d="M37.2,37.7H12.3c-0.7,0-1.3-0.6-1.3-1.3v-18c0-0.7,0.6-1.3,1.3-1.3h14.8c0,0,0.1,0,0.1,0l0.1-0.1l2.6-2.7
		c0.2-0.3,0.6-0.5,1-0.5h6.7c0.4,0,0.7,0.1,0.9,0.4c0.2,0.3,0.4,0.6,0.4,0.9l-0.4,21.3C38.5,37.1,37.9,37.7,37.2,37.7z M12.3,18.3
		C12.3,18.3,12.2,18.4,12.3,18.3l-0.1,18.1c0,0,0,0.1,0.1,0.1h24.9c0,0,0.1,0,0.1-0.1l0.4-21.3c0,0,0-0.1,0-0.1c0,0,0,0-0.1,0h-6.7
		c0,0-0.1,0-0.1,0l-0.1,0.1l-2.6,2.7c-0.2,0.3-0.6,0.5-1,0.5H12.3z"/>
</g>
<path class="st3" d="M10.9,36.4v-18c0-0.8,0.6-1.4,1.4-1.4l14.8,0l2.7-2.8c0.3-0.3,0.7-0.5,1.1-0.5h6.7c0.4,0,0.8,0.2,1,0.4
	c0.3,0.3,0.4,0.6,0.4,1l-0.4,21.3c0,0.8-0.7,1.4-1.4,1.4H12.3C11.5,37.8,10.9,37.2,10.9,36.4z M37.5,15.2l-6.6,0l-2.7,2.8
	c-0.3,0.3-0.7,0.5-1.1,0.5H12.3v17.9h24.8L37.5,15.2z M37.6,15.2L37.6,15.2L37.6,15.2z"/>
<g>
	<path class="st4" d="M9.2,23.8l7.4,11.1c0.1,0.2,0.4,0.3,0.6,0.1l14.5-9.7c0.2-0.1,0.3-0.4,0.1-0.6l-7.4-11.1
		c-0.1-0.2-0.4-0.3-0.6-0.1L9.3,23.1C9.1,23.3,9.1,23.6,9.2,23.8z"/>
	<g>
		<rect x="11.6" y="21.7" transform="matrix(0.8316 -0.5554 0.5554 0.8316 -9.0626 14.29)" class="st5" width="14.9" height="0.7"/>
		
			<rect x="10.7" y="20.4" transform="matrix(0.8316 -0.5554 0.5554 0.8316 -8.4713 13.5699)" class="st5" width="14.9" height="0.7"/>
	</g>
</g>
<g>
	<g>
		<path class="st5" d="M36.9,36.3l-5.5-14.4c0,0-0.1-0.1-0.1-0.1H6.6c-0.1,0-0.4,0.1-0.4,0.2l5.4,14.5"/>
		<path class="st3" d="M11,36.7L5.6,22.2c-0.1-0.2-0.1-0.4,0.1-0.6c0.2-0.3,0.7-0.4,0.9-0.4h24.7c0.3,0,0.5,0.2,0.7,0.4l5.5,14.5
			l-1.1,0.4l-5.4-14.1H7l5.1,13.8L11,36.7z M6.6,22.4C6.6,22.4,6.6,22.4,6.6,22.4L6.6,22.4z M6.8,21.8L6.8,21.8
			C6.8,21.8,6.8,21.8,6.8,21.8z"/>
	</g>
	<path class="st3" d="M11.6,37.2c0.1,0,0.2,0,0.3,0c0.4-0.1,0.6-0.6,0.4-1L7.2,22.5h23.6l5.4,14c0.1,0.4,0.6,0.6,1,0.4
		c0.4-0.1,0.6-0.6,0.4-1l-5.5-14.4c-0.2-0.3-0.5-0.6-0.8-0.6H6.6c-0.1,0-0.7,0.1-1,0.5l-0.2,0.3l0.1,0.4h0l5.4,14.5
		C11,37,11.3,37.2,11.6,37.2z"/>
</g>
</svg>
