<?xml version="1.0" encoding="utf-8"?>
<!-- Generator: Adobe Illustrator 22.0.0, SVG Export Plug-In . SVG Version: 6.00 Build 0)  -->
<svg version="1.1" id="Layer_1" xmlns="http://www.w3.org/2000/svg" xmlns:xlink="http://www.w3.org/1999/xlink" x="0px" y="0px"
	 viewBox="0 0 50 50" style="enable-background:new 0 0 50 50;" xml:space="preserve">
<style type="text/css">
	.st0{fill:#B3DEF2;}
	.st1{clip-path:url(#SVGID_2_);fill:url(#SVGID_3_);}
	.st2{fill:#00AAE4;}
</style>
<g>
	<g>
		
			<ellipse transform="matrix(2.769222e-02 -0.9996 0.9996 2.769222e-02 -0.6829 49.2983)" class="st0" cx="25" cy="25" rx="25" ry="25"/>
	</g>
	<g>
		<defs>
			
				<ellipse id="SVGID_1_" transform="matrix(2.769222e-02 -0.9996 0.9996 2.769222e-02 -0.6829 49.2983)" cx="25" cy="25" rx="25" ry="25"/>
		</defs>
		<clipPath id="SVGID_2_">
			<use xlink:href="#SVGID_1_"  style="overflow:visible;"/>
		</clipPath>
		<linearGradient id="SVGID_3_" gradientUnits="userSpaceOnUse" x1="-5.9095" y1="-8.5621" x2="47.4066" y2="54.1894">
			<stop  offset="0.3368" style="stop-color:#B6E4F9"/>
			<stop  offset="0.7428" style="stop-color:#DAF0FC"/>
		</linearGradient>
		<polygon class="st1" points="51.3,41.2 37.2,18.5 23.1,29.5 12.4,23.7 26.6,53.5 		"/>
	</g>
	<g>
		<path class="st2" d="M22.3,33.2l-9.1-9.1c-0.1-0.1-0.1-0.2,0-0.3l2.1-2c0.1-0.1,0.2-0.1,0.3,0l6.7,6.7c0.1,0.1,0.2,0.1,0.3,0
			l11.7-11.7c0.1-0.1,0.2-0.1,0.3,0l2,2c0.1,0.1,0.1,0.2,0,0.3L22.7,33.2C22.6,33.3,22.4,33.3,22.3,33.2z"/>
		<path class="st2" d="M22.5,33.9c-0.2,0-0.4-0.1-0.6-0.2l-9.1-9.1c-0.2-0.2-0.2-0.4-0.2-0.6c0-0.2,0.1-0.4,0.2-0.6l2.1-2
			c0.2-0.2,0.4-0.2,0.6-0.2c0,0,0,0,0,0c0.2,0,0.4,0.1,0.6,0.2l6.4,6.4l11.4-11.4c0.3-0.3,0.9-0.3,1.2,0l2,2c0.3,0.3,0.3,0.9,0,1.2
			L23.1,33.7C22.9,33.8,22.7,33.9,22.5,33.9z M13.9,24l8.6,8.6L36.1,19l-1.5-1.5L23.1,28.9c-0.3,0.3-0.9,0.3-1.2,0l-6.4-6.4L13.9,24
			z M15.7,22.2L15.7,22.2C15.7,22.2,15.7,22.2,15.7,22.2z"/>
	</g>
</g>
</svg>
