<?xml version="1.0" encoding="utf-8"?>
<!-- Generator: Adobe Illustrator 22.0.1, SVG Export Plug-In . SVG Version: 6.00 Build 0)  -->
<svg version="1.1" id="Layer_1" xmlns="http://www.w3.org/2000/svg" xmlns:xlink="http://www.w3.org/1999/xlink" x="0px" y="0px"
	 viewBox="0 0 50 50" style="enable-background:new 0 0 50 50;" xml:space="preserve">
<style type="text/css">
	.st0{fill:#FFFFFF;}
</style>
<g>
	<path class="st0" d="M28.8,42.6h13.6c0.6,0,1.1-0.5,1.1-1.1V27.9c0-0.6-0.5-1.1-1.1-1.1H28.8c-0.6,0-1.1,0.5-1.1,1.1v13.6
		C27.7,42.1,28.2,42.6,28.8,42.6z"/>
	<path class="st0" d="M9,42.6h13.6c0.6,0,1.1-0.5,1.1-1.1V27.9c0-0.6-0.5-1.1-1.1-1.1H9c-0.6,0-1.1,0.5-1.1,1.1v13.6
		C7.9,42.1,8.4,42.6,9,42.6z M10.7,28.4H21c0.6,0,1.1,0.5,1.1,1.1v10.3c0,0.6-0.5,1.1-1.1,1.1H10.7c-0.6,0-1.1-0.5-1.1-1.1V29.5
		C9.6,28.9,10.1,28.4,10.7,28.4z"/>
	<path class="st0" d="M9,22.8h13.6c0.6,0,1.1-0.5,1.1-1.1V8.1c0-0.6-0.5-1.1-1.1-1.1H9C8.4,7,7.9,7.5,7.9,8.1v13.6
		C7.9,22.3,8.4,22.8,9,22.8z"/>
	<path class="st0" d="M28.9,22.8h13.3c0.7,0,1.2-0.6,1.2-1.2V8.2C43.5,7.6,43,7,42.3,7H28.9c-0.7,0-1.2,0.6-1.2,1.2v13.3
		C27.7,22.2,28.3,22.8,28.9,22.8z M30.6,8.6h10c0.7,0,1.2,0.6,1.2,1.2v10c0,0.7-0.6,1.2-1.2,1.2h-10c-0.7,0-1.2-0.6-1.2-1.2v-10
		C29.4,9.2,29.9,8.6,30.6,8.6z"/>
</g>
</svg>
