<?xml version="1.0" encoding="utf-8"?>
<!-- Generator: Adobe Illustrator 22.0.1, SVG Export Plug-In . SVG Version: 6.00 Build 0)  -->
<svg version="1.1" id="Layer_1" xmlns="http://www.w3.org/2000/svg" xmlns:xlink="http://www.w3.org/1999/xlink" x="0px" y="0px"
	 viewBox="0 0 50 50" style="enable-background:new 0 0 50 50;" xml:space="preserve">
<style type="text/css">
	.st0{fill:#D4D4D5;}
</style>
<path class="st0" d="M25,9.2C16.3,9.2,9.2,16.3,9.2,25c0,8.7,7.1,15.8,15.8,15.8c8.7,0,15.8-7.1,15.8-15.8
	C40.8,16.3,33.7,9.2,25,9.2z M32.3,25.8l-10.8,7.8c-0.2,0.1-0.4,0.2-0.6,0.2c-0.3,0-0.6-0.2-0.8-0.4c-0.2-0.2-0.2-0.5-0.2-0.8
	c0-0.3,0.2-0.5,0.4-0.7l9.7-7l-9.7-7c-0.5-0.3-0.6-1-0.2-1.4c0.3-0.4,1-0.5,1.4-0.2l10.8,7.8c0.3,0.2,0.4,0.5,0.4,0.8
	C32.7,25.3,32.6,25.6,32.3,25.8z"/>
</svg>
