<?xml version="1.0" encoding="utf-8"?>
<!-- Generator: Adobe Illustrator 22.0.0, SVG Export Plug-In . SVG Version: 6.00 Build 0)  -->
<svg version="1.1" id="Layer_1" xmlns="http://www.w3.org/2000/svg" xmlns:xlink="http://www.w3.org/1999/xlink" x="0px" y="0px"
	 viewBox="0 0 50 50" style="enable-background:new 0 0 50 50;" xml:space="preserve">
<style type="text/css">
	.st0{fill:#B3DEF2;}
	.st1{clip-path:url(#SVGID_2_);fill:url(#SVGID_3_);}
	.st2{fill:#FFFFFF;}
	.st3{fill:#3F3B39;}
	.st4{fill:#00AAE4;}
</style>
<g>
	<g>
		
			<ellipse transform="matrix(2.769222e-02 -0.9996 0.9996 2.769222e-02 -0.6829 49.2983)" class="st0" cx="25" cy="25" rx="25" ry="25"/>
	</g>
	<g>
		<defs>
			
				<ellipse id="SVGID_1_" transform="matrix(2.769222e-02 -0.9996 0.9996 2.769222e-02 -0.6829 49.2983)" cx="25" cy="25" rx="25" ry="25"/>
		</defs>
		<clipPath id="SVGID_2_">
			<use xlink:href="#SVGID_1_"  style="overflow:visible;"/>
		</clipPath>
		<linearGradient id="SVGID_3_" gradientUnits="userSpaceOnUse" x1="2.0555" y1="1.9662" x2="44.3184" y2="51.7084">
			<stop  offset="0.3368" style="stop-color:#B6E4F9"/>
			<stop  offset="0.7428" style="stop-color:#DAF0FC"/>
		</linearGradient>
		<path class="st1" d="M34.5,12.3l15.9,23.8c0,0-6.6,10.1-12.2,12.3s-15,6.9-15.5,5.7C22.2,52.9,13,39.6,13,39.6L34.5,12.3z"/>
	</g>
	<g>
		<g>
			<polygon class="st2" points="38.5,24.2 34.1,19.7 34.1,12.8 30.2,12.8 30.2,15.7 25,10.3 11.5,24.2 14.4,24.2 14.4,37.3 
				35.5,37.3 35.5,24.2 			"/>
			<path class="st3" d="M35.5,37.9h-21c-0.3,0-0.5-0.2-0.5-0.5V24.7h-2.4c-0.2,0-0.4-0.1-0.5-0.3c-0.1-0.2,0-0.4,0.1-0.6l13.5-14
				c0.2-0.2,0.6-0.2,0.8,0l4.3,4.5v-1.6c0-0.3,0.2-0.5,0.5-0.5h3.9c0.3,0,0.5,0.2,0.5,0.5v6.7l4.2,4.4c0.1,0.2,0.2,0.4,0.1,0.6
				c-0.1,0.2-0.3,0.3-0.5,0.3H36v12.6C36,37.6,35.7,37.9,35.5,37.9z M15,36.8h20V24.2c0-0.3,0.2-0.5,0.5-0.5h1.8L33.7,20
				c-0.1-0.1-0.1-0.2-0.1-0.4v-6.4h-2.8v2.4c0,0.2-0.1,0.4-0.3,0.5c-0.2,0.1-0.4,0-0.6-0.1L25,11L12.8,23.7h1.7
				c0.3,0,0.5,0.2,0.5,0.5V36.8z"/>
		</g>
		<rect x="12.9" y="36.5" class="st3" width="24.2" height="3.2"/>
		<path class="st4" d="M23.5,31.5l-5.2-5.2c-0.1-0.1-0.1-0.1,0-0.2l1.2-1.2c0.1-0.1,0.1-0.1,0.2,0l3.8,3.8c0.1,0.1,0.1,0.1,0.2,0
			l6.7-6.7c0.1-0.1,0.1-0.1,0.2,0l1.2,1.2c0.1,0.1,0.1,0.1,0,0.2l-8,8C23.6,31.5,23.5,31.5,23.5,31.5z"/>
	</g>
</g>
</svg>
