<?xml version="1.0" encoding="utf-8"?>
<!-- Generator: Adobe Illustrator 22.0.0, SVG Export Plug-In . SVG Version: 6.00 Build 0)  -->
<svg version="1.1" id="Layer_1" xmlns="http://www.w3.org/2000/svg" xmlns:xlink="http://www.w3.org/1999/xlink" x="0px" y="0px"
	 viewBox="0 0 50 50" style="enable-background:new 0 0 50 50;" xml:space="preserve">
<style type="text/css">
	.st0{fill:#B3DEF2;}
	.st1{clip-path:url(#SVGID_2_);fill:url(#SVGID_3_);}
	.st2{fill:#00AAE4;}
	.st3{fill:#FFFFFF;}
	.st4{fill:#3F3B39;}
</style>
<g>
	<g>
		
			<ellipse transform="matrix(2.769222e-02 -0.9996 0.9996 2.769222e-02 -0.6829 49.2983)" class="st0" cx="25" cy="25" rx="25" ry="25"/>
	</g>
	<g>
		<defs>
			
				<ellipse id="SVGID_1_" transform="matrix(2.769222e-02 -0.9996 0.9996 2.769222e-02 -0.6829 49.2983)" cx="25" cy="25" rx="25" ry="25"/>
		</defs>
		<clipPath id="SVGID_2_">
			<use xlink:href="#SVGID_1_"  style="overflow:visible;"/>
		</clipPath>
		<linearGradient id="SVGID_3_" gradientUnits="userSpaceOnUse" x1="5.2985" y1="1.7023" x2="46.2178" y2="49.8631">
			<stop  offset="0.3368" style="stop-color:#B6E4F9"/>
			<stop  offset="0.7428" style="stop-color:#DAF0FC"/>
		</linearGradient>
		<path class="st1" d="M35.3,12.9l2.6,4l0.6-1.1l13.9,18.8c0,0-8.6,11.7-14.2,14S26.5,52.1,26,50.9S13.4,36.4,13.4,36.4L35.3,12.9z"
			/>
	</g>
	<g>
		<g>
			<g>
				<path class="st2" d="M21.5,24.9c-0.1,0-0.3,0-0.3-0.1L17,20.7l-2.6,2.6c-0.2,0.2-0.5,0.2-0.7,0l-2.9-2.9
					c-0.1-0.1-0.1-0.2-0.1-0.3c0-0.1,0.1-0.3,0.1-0.3l8.8-8.8c0.2-0.2,0.5-0.2,0.7,0l2.9,2.9c0.2,0.2,0.2,0.5,0,0.7l-2.6,2.6
					l4.1,4.1c0.1,0.1,0.1,0.2,0.1,0.3c0,0.1-0.1,0.3-0.1,0.3l-2.9,2.9C21.8,24.9,21.6,24.9,21.5,24.9z M17,19.5c0.1,0,0.3,0,0.3,0.1
					l4.1,4.1l2.2-2.2l-4.1-4.1c-0.1-0.1-0.1-0.2-0.1-0.3c0-0.1,0.1-0.3,0.1-0.3l2.6-2.6L19.9,12l-8.1,8.1l2.2,2.2l2.6-2.6
					C16.8,19.5,16.9,19.5,17,19.5z"/>
				<path class="st2" d="M21.5,25c-0.2,0-0.3-0.1-0.4-0.2L17,20.8l-2.6,2.6c-0.2,0.2-0.6,0.2-0.8,0l-2.9-2.9
					c-0.1-0.1-0.2-0.3-0.2-0.4c0-0.2,0.1-0.3,0.2-0.4l8.8-8.8c0.2-0.2,0.6-0.2,0.8,0l2.9,2.9c0.1,0.1,0.2,0.3,0.2,0.4
					c0,0.2-0.1,0.3-0.2,0.4l-2.5,2.5l4.1,4.1c0.1,0.1,0.2,0.3,0.2,0.4c0,0.2-0.1,0.3-0.2,0.4l-2.9,2.9C21.8,25,21.7,25,21.5,25z
					 M17,20.5l4.2,4.2c0.2,0.2,0.4,0.2,0.6,0l2.9-2.9c0.1-0.1,0.1-0.2,0.1-0.3c0-0.1,0-0.2-0.1-0.3l-4.2-4.2l2.6-2.6
					c0.1-0.1,0.1-0.2,0.1-0.3s0-0.2-0.1-0.3L20.2,11c-0.2-0.2-0.4-0.2-0.6,0l-8.8,8.8c-0.1,0.1-0.1,0.2-0.1,0.3c0,0.1,0,0.2,0.1,0.3
					l2.9,2.9c0.2,0.2,0.4,0.2,0.6,0L17,20.5z M21.5,23.9l-4.2-4.2c-0.2-0.2-0.4-0.2-0.6,0L14,22.4l-2.3-2.3l0.1-0.1l8.1-8.1l2.3,2.3
					l-2.6,2.6c-0.1,0.1-0.1,0.2-0.1,0.3c0,0.1,0,0.2,0.1,0.3l4.2,4.2L21.5,23.9z M17,19.4c0.2,0,0.3,0.1,0.4,0.2l4.1,4.1l2.1-2.1
					l-4.1-4.1c-0.1-0.1-0.2-0.3-0.2-0.4c0-0.2,0.1-0.3,0.2-0.4l2.5-2.5l-2.1-2.1l-8,8l2.1,2.1l2.6-2.6C16.7,19.5,16.9,19.4,17,19.4z
					"/>
			</g>
			<polygon class="st2" points="23,14.2 20.1,11.3 11.3,20.1 14.2,22.9 17.2,20 21.7,24.5 24.6,21.6 20.1,17.1 			"/>
		</g>
		<g>
			
				<rect x="30.8" y="26.6" transform="matrix(0.7072 -0.707 0.707 0.7072 -13.631 32.8284)" class="st2" width="4.1" height="12.5"/>
			<g>
				<path class="st2" d="M36,39.2c-0.1,0-0.3,0-0.3-0.1l-8.8-8.8c-0.1-0.1-0.1-0.2-0.1-0.3c0-0.1,0.1-0.3,0.1-0.3l2.9-2.9
					c0.2-0.2,0.5-0.2,0.7,0l8.8,8.8c0.1,0.1,0.1,0.2,0.1,0.3s-0.1,0.3-0.1,0.3l-2.9,2.9C36.2,39.2,36.1,39.2,36,39.2z M27.8,29.9
					L36,38l2.2-2.2L30,27.7L27.8,29.9z"/>
				<path class="st2" d="M36,39.3c-0.2,0-0.3-0.1-0.4-0.2l-8.8-8.8c-0.1-0.1-0.2-0.3-0.2-0.4s0.1-0.3,0.2-0.4l2.9-2.9
					c0.1-0.1,0.3-0.2,0.4-0.2c0,0,0,0,0,0c0.2,0,0.3,0.1,0.4,0.2l8.8,8.8c0.1,0.1,0.2,0.3,0.2,0.4c0,0.2-0.1,0.3-0.2,0.4l-2.9,2.9
					C36.3,39.2,36.1,39.3,36,39.3z M30,26.6L30,26.6c-0.1,0-0.2,0-0.3,0.1l-2.9,2.9c-0.1,0.1-0.1,0.2-0.1,0.3c0,0.1,0,0.2,0.1,0.3
					l8.8,8.8c0.2,0.2,0.4,0.2,0.6,0l2.9-2.9c0.1-0.1,0.1-0.2,0.1-0.3c0-0.1,0-0.2-0.1-0.3l-8.8-8.8C30.3,26.6,30.2,26.6,30,26.6z
					 M36,38.2l-8.2-8.2l2.3-2.3l8.2,8.2L36,38.2z M28,29.9l8,8l2.1-2.1l-8-8L28,29.9z"/>
			</g>
		</g>
		<g>
			<path class="st3" d="M38.2,16.2l-3.1,3.1l-2.9-2.9l2.9-2.9c-0.5-0.2-1-0.3-1.6-0.3c-2.8,0-5,2.2-5,5c0,0.6,0.1,1.1,0.3,1.6
				l-3.2,3.2L17.7,31c-0.2,0-0.4-0.1-0.7-0.1c-2,0-3.7,1.6-3.7,3.7c0,0.5,0.1,1,0.3,1.5l2.3-2.3L18,36l-2.2,2.2
				c0.4,0.1,0.7,0.2,1.2,0.2c2,0,3.7-1.6,3.7-3.7c0-0.3,0-0.5-0.1-0.7l5-5l6-6c0.6,0.3,1.3,0.4,1.9,0.4c2.8,0,5-2.2,5-5
				C38.6,17.5,38.4,16.9,38.2,16.2z"/>
			<g>
				<path class="st4" d="M17,38.8c-0.4,0-0.9-0.1-1.3-0.2c-0.2-0.1-0.3-0.2-0.3-0.4c0-0.2,0-0.3,0.1-0.5l1.8-1.8l-1.4-1.4L14,36.4
					c-0.1,0.1-0.3,0.2-0.4,0.1c-0.2,0-0.3-0.1-0.4-0.3c-0.2-0.5-0.3-1.1-0.3-1.7c0-2.5,2.1-4.5,4.7-4.1l10.7-10.7
					c-0.1-0.5-0.2-1-0.2-1.5c0-3,2.5-5.5,5.5-5.5c0.6,0,1.2,0.1,1.7,0.3c0.2,0.1,0.3,0.2,0.3,0.4c0,0.2,0,0.3-0.1,0.5l-2.6,2.6
					l2.2,2.2l2.7-2.7c0.1-0.1,0.3-0.2,0.4-0.1c0.2,0,0.3,0.1,0.4,0.3c0.3,0.7,0.5,1.4,0.5,2.2c0,3-2.5,5.5-5.5,5.5
					c-0.6,0-1.2-0.1-1.8-0.3L21.2,34c0,0.2,0,0.4,0,0.6C21.2,36.9,19.3,38.8,17,38.8z M16.9,37.8c1.8,0.1,3.3-1.4,3.3-3.2
					c0-0.2,0-0.4-0.1-0.6c0-0.2,0-0.3,0.1-0.4l11-11c0.1-0.1,0.4-0.2,0.5-0.1c0.6,0.2,1.1,0.4,1.7,0.4c2.5,0,4.5-2,4.5-4.5
					c0-0.4,0-0.7-0.1-1.1l-2.5,2.5c-0.2,0.2-0.5,0.2-0.7,0l-2.9-2.9c-0.1-0.1-0.1-0.2-0.1-0.3c0-0.1,0.1-0.3,0.1-0.3l2.3-2.3
					c-0.2,0-0.4,0-0.6,0c-2.5,0-4.5,2-4.5,4.5c0,0.5,0.1,1,0.3,1.5c0.1,0.2,0,0.4-0.1,0.5L18,31.3c-0.1,0.1-0.3,0.2-0.4,0.1
					c-0.2,0-0.4-0.1-0.6-0.1c-1.8,0-3.2,1.4-3.2,3.2c0,0.2,0,0.4,0,0.5l1.7-1.7c0.1-0.1,0.2-0.1,0.3-0.1l0,0c0.1,0,0.3,0.1,0.3,0.1
					l2.1,2.1c0.2,0.2,0.2,0.5,0,0.7L16.9,37.8z"/>
				<path class="st4" d="M17,38.9c-0.4,0-0.9-0.1-1.3-0.2c-0.2-0.1-0.3-0.2-0.4-0.4c0-0.2,0-0.4,0.2-0.5l1.7-1.7l-1.3-1.3l-1.8,1.8
					c-0.1,0.1-0.3,0.2-0.5,0.2c-0.2,0-0.3-0.2-0.4-0.3c-0.2-0.5-0.4-1.1-0.4-1.7c0-1.2,0.5-2.4,1.4-3.2c0.9-0.8,2.1-1.2,3.3-1
					l10.7-10.7c-0.1-0.5-0.2-1-0.2-1.5c0-3.1,2.5-5.6,5.6-5.6c0.6,0,1.2,0.1,1.8,0.3c0.2,0.1,0.3,0.2,0.4,0.4c0,0.2,0,0.4-0.2,0.5
					L33,16.4l2.1,2.1l2.7-2.7c0.1-0.1,0.3-0.2,0.5-0.2c0.2,0,0.3,0.2,0.4,0.3c0.3,0.7,0.5,1.5,0.5,2.2c0,3.1-2.5,5.6-5.6,5.6
					c-0.6,0-1.2-0.1-1.8-0.3L21.2,34.1c0,0.2,0,0.4,0,0.6C21.3,37,19.4,38.9,17,38.9z M15.9,34.4l1.5,1.5l-1.9,1.9
					c-0.1,0.1-0.1,0.2-0.1,0.4c0,0.1,0.1,0.2,0.3,0.3c0.4,0.1,0.8,0.2,1.3,0.2c2.3,0,4.1-1.8,4.1-4.1c0-0.2,0-0.4,0-0.6l0,0
					l10.7-10.7l0,0c0.6,0.2,1.2,0.3,1.8,0.3c3,0,5.4-2.4,5.4-5.4c0-0.7-0.2-1.5-0.4-2.2c-0.1-0.1-0.2-0.2-0.3-0.2
					c-0.1,0-0.3,0-0.4,0.1l-2.8,2.8l-2.3-2.3l2.6-2.6c0.1-0.1,0.1-0.2,0.1-0.4c0-0.1-0.1-0.2-0.3-0.3c-0.6-0.2-1.1-0.3-1.7-0.3
					c-3,0-5.4,2.4-5.4,5.4c0,0.5,0.1,1,0.2,1.5l0,0l0,0L17.6,30.6l0,0c-1.2-0.1-2.3,0.2-3.2,1c-0.9,0.8-1.4,1.9-1.4,3.1
					c0,0.6,0.1,1.1,0.3,1.6c0.1,0.1,0.2,0.2,0.3,0.2c0.1,0,0.3,0,0.4-0.1L15.9,34.4z M17,37.9c-0.1,0-0.1,0-0.2,0l-0.2,0l1.6-1.6
					c0.2-0.2,0.2-0.4,0-0.6l-2.1-2.1c-0.2-0.2-0.4-0.2-0.6,0l-1.8,1.8l0-0.2c0-0.2,0-0.4,0-0.6c0-1.8,1.5-3.3,3.3-3.3
					c0.2,0,0.4,0,0.6,0.1c0.1,0,0.3,0,0.4-0.1l11.1-11.1c0.1-0.1,0.1-0.3,0.1-0.4c-0.2-0.5-0.3-1-0.3-1.5c0-2.5,2.1-4.6,4.6-4.6
					c0.2,0,0.4,0,0.6,0l0.2,0l-2.4,2.4c-0.1,0.1-0.1,0.2-0.1,0.3s0,0.2,0.1,0.3l2.9,2.9c0.2,0.2,0.4,0.2,0.6,0L38,17l0,0.1
					c0.1,0.4,0.1,0.7,0.1,1.1c0,2.5-2.1,4.6-4.6,4.6c-0.6,0-1.2-0.1-1.8-0.4c-0.2-0.1-0.3,0-0.4,0.1l-11,11
					c-0.1,0.1-0.1,0.2-0.1,0.4c0,0.2,0.1,0.4,0.1,0.7c0,0.9-0.4,1.8-1,2.4C18.7,37.6,17.9,37.9,17,37.9z M15.9,33.3
					c0.2,0,0.3,0.1,0.4,0.2l2.1,2.1c0.2,0.2,0.2,0.6,0,0.8l-1.4,1.4c0.8,0,1.5-0.3,2.1-0.9c0.6-0.6,1-1.4,1-2.3c0-0.2,0-0.4-0.1-0.6
					c0-0.2,0-0.4,0.2-0.5l11-11c0.2-0.2,0.4-0.2,0.6-0.1c0.5,0.2,1.1,0.3,1.7,0.3c2.5,0,4.4-2,4.4-4.4c0-0.3,0-0.6-0.1-0.9l-2.4,2.4
					c-0.2,0.2-0.6,0.2-0.8,0l-2.9-2.9c-0.1-0.1-0.2-0.3-0.2-0.4c0-0.2,0.1-0.3,0.2-0.4l2.2-2.2c-0.1,0-0.3,0-0.4,0
					c-2.5,0-4.4,2-4.4,4.4c0,0.5,0.1,1,0.2,1.4c0.1,0.2,0,0.4-0.1,0.6L18.1,31.4c-0.1,0.1-0.3,0.2-0.5,0.2c-0.2,0-0.4-0.1-0.6-0.1
					c-1.7,0-3.1,1.4-3.1,3.1c0,0.1,0,0.2,0,0.4l1.6-1.6C15.6,33.3,15.7,33.3,15.9,33.3z"/>
			</g>
		</g>
	</g>
</g>
</svg>
