<?xml version="1.0" encoding="utf-8"?>
<!-- Generator: Adobe Illustrator 22.0.0, SVG Export Plug-In . SVG Version: 6.00 Build 0)  -->
<svg version="1.1" id="Layer_1" xmlns="http://www.w3.org/2000/svg" xmlns:xlink="http://www.w3.org/1999/xlink" x="0px" y="0px"
	 viewBox="0 0 50 50" style="enable-background:new 0 0 50 50;" xml:space="preserve">
<style type="text/css">
	.st0{fill:#2B2B2B;}
	.st1{fill:#0900A2;}
</style>
<g>
	<path class="st0" d="M39.7,37.7H10.4c-1.7,0-3.1-1.4-3.1-3.1V15.4c0-1.7,1.4-3.1,3.1-3.1h29.3c1.7,0,3.1,1.4,3.1,3.1v19.1
		C42.8,36.3,41.4,37.7,39.7,37.7z M10.4,13.4c-1.1,0-2,0.9-2,2v19.1c0,1.1,0.9,2,2,2h29.3c1.1,0,2-0.9,2-2V15.4c0-1.1-0.9-2-2-2
		H10.4z"/>
	<path class="st0" d="M37.2,29.8h-3.7c-0.3,0-0.6-0.2-0.6-0.6c0-0.3,0.2-0.6,0.6-0.6h3.7c0.3,0,0.6,0.2,0.6,0.6
		C37.7,29.5,37.5,29.8,37.2,29.8z"/>
	<path class="st0" d="M37.2,32.7h-8.3c-0.3,0-0.6-0.2-0.6-0.6c0-0.3,0.2-0.6,0.6-0.6h8.3c0.3,0,0.6,0.2,0.6,0.6
		C37.7,32.5,37.5,32.7,37.2,32.7z"/>
</g>
<g>
	<path class="st1" d="M13.9,18.9l0.9,0.3c-0.1,0.5-0.4,0.9-0.7,1.1c-0.3,0.2-0.7,0.4-1.2,0.4c-0.6,0-1.1-0.2-1.5-0.6
		c-0.4-0.4-0.6-1-0.6-1.7c0-0.8,0.2-1.4,0.6-1.8c0.4-0.4,0.9-0.6,1.6-0.6c0.6,0,1,0.2,1.4,0.5c0.2,0.2,0.4,0.5,0.5,0.8l-0.9,0.2
		c-0.1-0.2-0.2-0.4-0.3-0.6c-0.2-0.1-0.4-0.2-0.6-0.2c-0.3,0-0.6,0.1-0.8,0.4c-0.2,0.2-0.3,0.6-0.3,1.2c0,0.6,0.1,1,0.3,1.2
		c0.2,0.2,0.5,0.4,0.8,0.4c0.2,0,0.5-0.1,0.6-0.2C13.6,19.5,13.8,19.2,13.9,18.9z"/>
	<path class="st1" d="M19.7,20.6h-1l-0.4-1h-1.8l-0.4,1h-1l1.8-4.6h1L19.7,20.6z M18,18.8l-0.6-1.7l-0.6,1.7H18z"/>
	<path class="st1" d="M20.2,20.6V16h1.9c0.5,0,0.8,0,1.1,0.1c0.2,0.1,0.4,0.2,0.5,0.4c0.1,0.2,0.2,0.5,0.2,0.7
		c0,0.3-0.1,0.6-0.3,0.9c-0.2,0.2-0.5,0.4-0.9,0.4c0.2,0.1,0.4,0.2,0.5,0.4c0.1,0.1,0.3,0.4,0.5,0.7l0.6,0.9h-1.1l-0.7-1
		c-0.2-0.4-0.4-0.6-0.5-0.7c-0.1-0.1-0.2-0.2-0.3-0.2c-0.1,0-0.3-0.1-0.5-0.1h-0.2v1.9H20.2z M21.1,17.9h0.7c0.4,0,0.7,0,0.8-0.1
		c0.1,0,0.2-0.1,0.3-0.2c0.1-0.1,0.1-0.2,0.1-0.3c0-0.2,0-0.3-0.1-0.4c-0.1-0.1-0.2-0.2-0.3-0.2c-0.1,0-0.3,0-0.7,0h-0.7V17.9z"/>
	<path class="st1" d="M24.8,16h1.7c0.4,0,0.7,0,0.9,0.1c0.3,0.1,0.5,0.2,0.7,0.4c0.2,0.2,0.3,0.4,0.4,0.7c0.1,0.3,0.1,0.7,0.1,1.1
		c0,0.4,0,0.7-0.1,1c-0.1,0.3-0.3,0.6-0.5,0.8c-0.2,0.2-0.4,0.3-0.6,0.4c-0.2,0.1-0.5,0.1-0.8,0.1h-1.7V16z M25.7,16.8v3h0.7
		c0.3,0,0.4,0,0.6,0c0.2,0,0.3-0.1,0.4-0.2c0.1-0.1,0.2-0.2,0.2-0.4c0.1-0.2,0.1-0.5,0.1-0.8c0-0.4,0-0.6-0.1-0.8s-0.1-0.3-0.3-0.4
		c-0.1-0.1-0.3-0.2-0.4-0.2c-0.1,0-0.4,0-0.8,0H25.7z"/>
</g>
</svg>
