<?xml version="1.0" encoding="utf-8"?>
<!-- Generator: Adobe Illustrator 22.0.0, SVG Export Plug-In . SVG Version: 6.00 Build 0)  -->
<svg version="1.1" id="Layer_1" xmlns="http://www.w3.org/2000/svg" xmlns:xlink="http://www.w3.org/1999/xlink" x="0px" y="0px"
	 viewBox="0 0 50 50" style="enable-background:new 0 0 50 50;" xml:space="preserve">
<style type="text/css">
	.st0{fill:#2B2B2B;}
	.st1{fill:#0900A2;}
</style>
<g>
	<path class="st0" d="M42.3,29H7.8c-0.3,0-0.6-0.2-0.6-0.6c0-0.3,0.2-0.6,0.6-0.6h34.5c0.3,0,0.6,0.2,0.6,0.6
		C42.8,28.7,42.5,29,42.3,29z"/>
	<path class="st0" d="M42.3,34.1H7.8c-0.3,0-0.6-0.2-0.6-0.6c0-0.3,0.2-0.6,0.6-0.6h34.5c0.3,0,0.6,0.2,0.6,0.6
		C42.8,33.8,42.5,34.1,42.3,34.1z"/>
	<path class="st0" d="M39.6,37.7H10.4c-1.7,0-3.1-1.4-3.1-3.1V15.4c0-1.7,1.4-3.1,3.1-3.1h29.3c1.7,0,3.1,1.4,3.1,3.1v19.1
		C42.8,36.3,41.3,37.7,39.6,37.7z M10.4,13.4c-1.1,0-2,0.9-2,2v19.1c0,1.1,0.9,2,2,2h29.3c1.1,0,2-0.9,2-2V15.4c0-1.1-0.9-2-2-2
		H10.4z"/>
	<path class="st1" d="M10.9,16h1.8c0.4,0,0.6,0,0.8,0c0.2,0,0.3,0.1,0.5,0.2c0.1,0.1,0.3,0.2,0.4,0.4c0.1,0.2,0.1,0.3,0.1,0.5
		c0,0.2-0.1,0.4-0.2,0.6S14,18,13.8,18.1c0.3,0.1,0.5,0.2,0.6,0.4c0.2,0.2,0.2,0.4,0.2,0.7c0,0.2,0,0.4-0.1,0.6s-0.2,0.4-0.4,0.5
		c-0.2,0.1-0.4,0.2-0.6,0.2s-0.5,0-1.1,0h-1.5V16z M11.8,16.7v1.1h0.6c0.4,0,0.6,0,0.7,0c0.2,0,0.3-0.1,0.4-0.2
		c0.1-0.1,0.1-0.2,0.1-0.4c0-0.1,0-0.3-0.1-0.3c-0.1-0.1-0.2-0.1-0.3-0.2c-0.1,0-0.4,0-0.8,0C12.3,16.7,11.8,16.7,11.8,16.7z
		 M11.8,18.6v1.2h0.9c0.3,0,0.5,0,0.6,0s0.2-0.1,0.3-0.2s0.1-0.2,0.1-0.4c0-0.1,0-0.3-0.1-0.4s-0.2-0.2-0.3-0.2s-0.4-0.1-0.8-0.1
		h-0.7V18.6z"/>
	<path class="st1" d="M19.6,20.6h-1l-0.4-1h-1.8l-0.4,1h-1l1.8-4.6h1L19.6,20.6z M18,18.7L17.3,17l-0.6,1.7H18z"/>
	<path class="st1" d="M20.1,20.6V16H21l1.9,3.1V16h0.9v4.6h-1l-1.8-3v3H20.1z"/>
	<path class="st1" d="M24.8,20.6V16h0.9v2l1.9-2h1.2L27,17.8l1.8,2.8h-1.2l-1.3-2.2l-0.8,0.8v1.4C25.5,20.6,24.8,20.6,24.8,20.6z"/>
</g>
</svg>
