<?xml version="1.0" encoding="utf-8"?>
<!-- Generator: Adobe Illustrator 22.0.0, SVG Export Plug-In . SVG Version: 6.00 Build 0)  -->
<svg version="1.1" id="Layer_1" xmlns="http://www.w3.org/2000/svg" xmlns:xlink="http://www.w3.org/1999/xlink" x="0px" y="0px"
	 viewBox="0 0 50 50" style="enable-background:new 0 0 50 50;" xml:space="preserve">
<style type="text/css">
	.st0{fill:#0900A2;}
	.st1{fill:#2B2B2B;}
	.st2{fill:#FFFFFF;}
</style>
<g>
	<circle class="st0" cx="25" cy="25" r="8.4"/>
	<g>
		<path class="st1" d="M35.1,14.9c-4.3-4.3-10.7-5.3-16-2.9v-1.2c0-0.3-0.2-0.4-0.4-0.4h-7.5c-0.3,0-0.4,0.2-0.4,0.4v28.4
			c0,0.3,0.2,0.4,0.4,0.4h7.5c0.3,0,0.4-0.2,0.4-0.4V38c1.9,0.8,3.9,1.3,5.9,1.3c3.6,0,7.3-1.4,10.1-4.2
			C40.7,29.5,40.7,20.4,35.1,14.9z M18.3,37.7v1h-6.6V11.2h6.6v1.1c0,0,0,0,0,0c-1,0.5-1.9,1.2-2.8,2v-1.2c0-0.3-0.2-0.4-0.4-0.4
			c-0.3,0-0.4,0.2-0.4,0.4v23.8c0,0.3,0.2,0.4,0.4,0.4c0.3,0,0.4-0.2,0.4-0.4v-1.2C16.3,36.5,17.3,37.1,18.3,37.7
			C18.3,37.6,18.3,37.7,18.3,37.7z M34.5,34.5c-5.2,5.2-13.7,5.2-18.9,0c0,0-0.1,0-0.1-0.1V15.6c0,0,0.1,0,0.1-0.1
			c5.2-5.2,13.7-5.2,18.9,0S39.7,29.2,34.5,34.5z"/>
	</g>
</g>
<g>
	<path class="st2" d="M23.2,26.7c0,0.1,0,0.2,0.1,0.2c0,0,0.1-0.1,0.1-0.2l1-4.5c0-0.2,0.1-0.3,0.2-0.4c0.1-0.1,0.3-0.1,0.4-0.1
		c0.2,0,0.3,0,0.4,0.1c0.1,0.1,0.2,0.2,0.3,0.4l1,4.5c0,0.1,0.1,0.2,0.1,0.2c0,0,0-0.1,0.1-0.2l0.5-4.8c0-0.1-0.1-0.3-0.2-0.3
		c-0.2-0.1-0.4-0.1-0.6,0c-0.1,0-0.2,0-0.3-0.2c-0.1-0.1-0.1-0.2-0.1-0.4c0-0.2,0-0.3,0.1-0.4c0.1-0.1,0.2-0.2,0.3-0.1
		c0.5,0,0.9,0,1.4,0c0.5,0,0.9,0,1.3,0c0.1,0,0.2,0,0.3,0.1c0.1,0.1,0.1,0.3,0.1,0.4c0,0.2,0,0.3-0.1,0.4c-0.1,0.1-0.2,0.2-0.3,0.2
		H29c-0.1,0-0.2,0-0.3,0c-0.1,0-0.1,0.1-0.1,0.3l-0.3,2.4l0.8,0c0.4,0,0.6,0,0.7,0c0.1,0.1,0.2,0.2,0.2,0.5c0,0.2-0.1,0.4-0.2,0.4
		c-0.1,0-0.3,0.1-0.7,0l-0.9,0l-0.5,4.6c0,0.2-0.1,0.4-0.3,0.5c-0.1,0.1-0.3,0.2-0.5,0.2c-0.2,0-0.4-0.1-0.5-0.2
		c-0.2-0.1-0.2-0.3-0.3-0.5l-1-4.5C25.1,25.1,25,25,25,25c0,0-0.1,0.1-0.1,0.4l-1,4.5c0,0.2-0.1,0.4-0.3,0.5
		c-0.1,0.1-0.3,0.2-0.5,0.2c-0.2,0-0.3-0.1-0.5-0.2c-0.2-0.1-0.2-0.3-0.3-0.5l-0.5-4.6l-1,0c-0.4,0-0.6,0-0.7,0
		C20.1,25.2,20,25,20,24.7c0-0.2,0.1-0.4,0.2-0.4c0.1,0,0.4-0.1,0.8,0l0.7,0l-0.3-2.4c0-0.1-0.1-0.2-0.1-0.3
		c-0.1-0.1-0.2-0.1-0.5-0.1c-0.1,0-0.2,0-0.3-0.2c-0.1-0.1-0.1-0.2-0.1-0.4c0-0.2,0-0.3,0.1-0.4c0.1-0.1,0.2-0.2,0.3-0.1
		c0.6,0,1.1,0,1.4,0c0.4,0,0.8,0,1.3,0c0.1,0,0.2,0,0.3,0.1c0.1,0.1,0.1,0.2,0.1,0.4c0,0.2,0,0.3-0.1,0.4c-0.1,0.1-0.2,0.2-0.3,0.2
		c-0.3,0-0.5,0-0.6,0c-0.2,0.1-0.2,0.2-0.2,0.4L23.2,26.7z"/>
</g>
</svg>
