<?xml version="1.0" encoding="utf-8"?>
<!-- Generator: Adobe Illustrator 22.0.0, SVG Export Plug-In . SVG Version: 6.00 Build 0)  -->
<svg version="1.1" id="Layer_5" xmlns="http://www.w3.org/2000/svg" xmlns:xlink="http://www.w3.org/1999/xlink" x="0px" y="0px"
	 viewBox="0 0 80 80" style="enable-background:new 0 0 80 80;" xml:space="preserve">
<style type="text/css">
	.st0{fill:#002D62;}
</style>
<g>
	<path class="st0" d="M74.6,68.4c-0.2-1.4-0.9-2.7-2-3.8L59.3,51.2l-8.1,8l13.3,13.4c1.1,1.1,2.4,1.8,3.8,2l0,0
		c0.3,0,0.6,0.1,0.8,0.1c1.3,0,2.5-0.5,3.3-1.3l0.8-0.8C74.3,71.6,74.8,70,74.6,68.4z M59.3,57.7l10.1,10.2c0.4,0.4,0.6,0.8,0.7,1.2
		c0,0.2,0,0.3,0,0.2l-0.8,0.8c0,0-0.1,0-0.3,0c-0.4-0.1-0.8-0.3-1.2-0.7L57.7,59.3L59.3,57.7z"/>
	<path class="st0" d="M53.2,13.5c-10.9-10.9-28.6-11-39.6-0.1c-5.3,5.3-8.2,12.3-8.3,19.8c0,7.5,2.9,14.5,8.1,19.8
		c5.3,5.3,12.3,8.2,19.8,8.3h0.1c7.4,0,14.4-2.9,19.7-8.1C64,42.2,64.1,24.4,53.2,13.5z M16.9,16.6c4.4-4.4,10.3-6.8,16.5-6.8
		c6.3,0,12.2,2.4,16.6,6.9c4.4,4.4,6.8,10.3,6.8,16.6s-2.5,12.1-6.9,16.5s-10.3,6.8-16.6,6.8c-6.2,0-12.1-2.5-16.5-6.9
		S10,39.4,10,33.1C10,26.9,12.4,21,16.9,16.6L16.9,16.6z"/>
	<rect x="51.7" y="49.4" transform="matrix(0.7094 -0.7048 0.7048 0.7094 -22.3737 53.731)" class="st0" width="4.6" height="9.2"/>
</g>
</svg>
