<?xml version="1.0" encoding="utf-8"?>
<!-- Generator: Adobe Illustrator 22.0.0, SVG Export Plug-In . SVG Version: 6.00 Build 0)  -->
<svg version="1.1" id="Layer_1" xmlns="http://www.w3.org/2000/svg" xmlns:xlink="http://www.w3.org/1999/xlink" x="0px" y="0px"
	 viewBox="0 0 50 50" style="enable-background:new 0 0 50 50;" xml:space="preserve">
<style type="text/css">
	.st0{fill:#C0C0C0;}
</style>
<g>
	<path class="st0" d="M25.3,34c5,0,9.1-4.1,9.1-9.1s-4.1-9.1-9.1-9.1s-9.1,4.1-9.1,9.1S20.3,34,25.3,34z M25.3,19.5
		c3,0,5.5,2.4,5.5,5.5c0,3-2.4,5.5-5.5,5.5c-3,0-5.5-2.4-5.5-5.5S22.3,19.5,25.3,19.5z"/>
	<path class="st0" d="M5,29.9h3.7c0.3,1.1,0.8,2.2,1.4,3.3l-2.6,2.6c-0.5,0.5-0.5,1.4,0,2l5,5c0.5,0.5,1.4,0.5,2,0l2.6-2.6
		c1,0.6,2.1,1,3.3,1.4v3.7c0,0.8,0.6,1.4,1.4,1.4h7.1c0.8,0,1.4-0.6,1.4-1.4v-3.7c1.1-0.3,2.2-0.8,3.3-1.4l2.6,2.6
		c0.5,0.5,1.4,0.5,2,0l5-5c0.5-0.5,0.5-1.4,0-2l-2.6-2.6c0.6-1,1-2.1,1.4-3.3h3.7c0.8,0,1.4-0.6,1.4-1.4v-7.1c0-0.8-0.6-1.4-1.4-1.4
		H42c-0.3-1.1-0.8-2.2-1.4-3.3l2.6-2.6c0.3-0.3,0.4-0.6,0.4-1s-0.1-0.7-0.4-1l-5-5c-0.5-0.5-1.4-0.5-2,0l-2.6,2.6
		c-1-0.6-2.1-1-3.3-1.4V4.6c0-0.8-0.6-1.4-1.4-1.4h-7.1c-0.8,0-1.4,0.6-1.4,1.4v3.7c-1.1,0.3-2.2,0.8-3.3,1.4L14.4,7
		c-0.5-0.5-1.4-0.5-2,0l-5,5C7.1,12.3,7,12.6,7,13s0.1,0.7,0.4,1l2.6,2.6c-0.6,1-1,2.1-1.4,3.3H5c-0.8,0-1.4,0.6-1.4,1.4v7.1
		C3.6,29.2,4.2,29.9,5,29.9z M6.8,23.2h3c0.8,0,1.6-0.6,1.8-1.4c0.4-1.5,1-3,1.8-4.3c0.5-0.7,0.3-1.6-0.3-2.2L11,13.1l2.5-2.5
		l2.1,2.1c0.6,0.6,1.5,0.7,2.2,0.3c1.3-0.8,2.8-1.4,4.3-1.8c0.8-0.2,1.4-0.9,1.4-1.8v-3H27v3c0,0.8,0.6,1.6,1.4,1.8
		c1.5,0.4,3,1,4.3,1.8c0.7,0.4,1.7,0.3,2.2-0.3l2.1-2.1l2.5,2.5l-2.1,2.1c-0.6,0.6-0.7,1.5-0.3,2.2c0.8,1.3,1.4,2.8,1.8,4.3
		c0.2,0.8,0.9,1.4,1.8,1.4h3v3.5h-3c-0.8,0-1.6,0.6-1.8,1.4c-0.4,1.5-1,3-1.8,4.3c-0.4,0.7-0.3,1.6,0.3,2.2l2.1,2.1L37,39.1l-2-2
		c-0.6-0.6-1.5-0.7-2.2-0.3c-1.3,0.8-2.8,1.4-4.3,1.8c-0.8,0.2-1.4,0.9-1.4,1.8v3h-3.5v-3c0-0.8-0.6-1.6-1.4-1.8
		c-1.5-0.4-3-1-4.3-1.8c-0.7-0.4-1.7-0.3-2.2,0.3l-2.1,2.1L11,36.8l2.1-2.1c0.6-0.6,0.7-1.5,0.3-2.2c-0.8-1.3-1.4-2.8-1.8-4.3
		c-0.2-0.8-0.9-1.4-1.8-1.4h-3V23.2z"/>
</g>
</svg>
