<?xml version="1.0" encoding="utf-8"?>
<!-- Generator: Adobe Illustrator 22.0.1, SVG Export Plug-In . SVG Version: 6.00 Build 0)  -->
<svg version="1.1" id="Layer_1" xmlns="http://www.w3.org/2000/svg" xmlns:xlink="http://www.w3.org/1999/xlink" x="0px" y="0px"
	 viewBox="0 0 50 50" style="enable-background:new 0 0 50 50;" xml:space="preserve">
<g>
	<path d="M40.8,19.4h-4.8v-5.8c0,0,0,0,0,0s0,0,0,0v-0.1c0-0.2-0.1-0.4-0.2-0.5l-5.5-5.5c-0.1-0.1-0.3-0.2-0.5-0.2H16.3
		c-1,0-1.9,0.9-1.9,1.9v10.3H9.7c-1.2,0-2.2,1-2.2,2.2v13.1c0,1.2,1,2.2,2.2,2.2h4.8v3.9c0,1,0.9,1.9,1.9,1.9h17.9
		c1,0,1.9-0.9,1.9-1.9v-3.9h4.8c1.2,0,2.2-1,2.2-2.2V21.6C43,20.4,42,19.4,40.8,19.4z M30.5,9.4l3.4,3.4h-3.4V9.4z M15.8,9.1
		c0-0.3,0.2-0.5,0.5-0.5H29v5c0,0.4,0.3,0.7,0.7,0.7h5v5.2h-19V9.1z M34.7,40.8c0,0.3-0.2,0.5-0.5,0.5H16.3c-0.3,0-0.5-0.2-0.5-0.5
		V30.2c0-0.3,0.2-0.5,0.5-0.5h17.9c0.3,0,0.5,0.2,0.5,0.5V40.8z M38.4,25.3c-0.7,0-1.2-0.5-1.2-1.2s0.5-1.2,1.2-1.2s1.2,0.5,1.2,1.2
		S39,25.3,38.4,25.3z"/>
	<path d="M31.5,34.9H19c-0.3,0-0.6,0.3-0.6,0.6s0.3,0.6,0.6,0.6h12.6c0.3,0,0.6-0.3,0.6-0.6S31.8,34.9,31.5,34.9z"/>
	<path d="M31.5,32.3H19c-0.3,0-0.6,0.3-0.6,0.6s0.3,0.6,0.6,0.6h12.6c0.3,0,0.6-0.3,0.6-0.6S31.8,32.3,31.5,32.3z"/>
	<path d="M31.5,37.4h-6.3c-0.3,0-0.6,0.3-0.6,0.6s0.3,0.6,0.6,0.6h6.3c0.3,0,0.6-0.3,0.6-0.6S31.8,37.4,31.5,37.4z"/>
</g>
</svg>
