<?xml version="1.0" encoding="utf-8"?>
<!-- Generator: Adobe Illustrator 22.0.1, SVG Export Plug-In . SVG Version: 6.00 Build 0)  -->
<svg version="1.1" id="Layer_1" xmlns="http://www.w3.org/2000/svg" xmlns:xlink="http://www.w3.org/1999/xlink" x="0px" y="0px"
	 viewBox="0 0 50 50" style="enable-background:new 0 0 50 50;" xml:space="preserve">
<style type="text/css">
	.st0{fill:#FFFFFF;}
	.st1{fill:#3F3B39;}
	.st2{fill:#00AAE4;}
	.st3{fill:#EDEDED;}
</style>
<g>
	<path class="st0" d="M9.7,9.6h30.9c0.3,0,0.5,0.2,0.5,0.5v2.7c0,0.3-0.2,0.5-0.5,0.5H9.7c-1,0-1.9-0.8-1.9-1.9
		C7.8,10.4,8.6,9.6,9.7,9.6z M41.1,21c0,0.3-0.2,0.5-0.5,0.5h-8.3c-3.5,0-6.4,2.9-6.4,6.4s2.9,6.4,6.4,6.4h8.3
		c0.3,0,0.5,0.2,0.5,0.5v5.1c0,0.3-0.2,0.5-0.5,0.5H9.7c-1,0-1.9-0.8-1.9-1.9V15c0-0.2,0.1-0.3,0.2-0.4c0.1-0.1,0.2-0.1,0.3-0.1
		c0.1,0,0.1,0,0.2,0c0,0,0,0,0,0c0.2,0.1,0.3,0.1,0.5,0.1c0,0,0,0,0.1,0c0.2,0,0.4,0.1,0.6,0.1h30.9c0.3,0,0.5,0.2,0.5,0.5V21z"/>
	<path class="st1" d="M42.5,14c0,0.4-0.3,0.7-0.7,0.7H9.7c-1.8,0-3.3-1.5-3.3-3.3s1.5-3.3,3.3-3.3h32.1c0.4,0,0.7,0.3,0.7,0.7V14z
		 M7.8,11.4c0,1,0.8,1.9,1.9,1.9h30.9c0.3,0,0.5-0.2,0.5-0.5v-2.7c0-0.3-0.2-0.5-0.5-0.5H9.7C8.6,9.6,7.8,10.4,7.8,11.4z"/>
	<path class="st1" d="M42.5,22.2c0,0.2-0.1,0.4-0.2,0.5c-0.1,0.1-0.3,0.2-0.5,0.2c0,0-0.1,0-0.1,0c0,0-0.1,0-0.1,0l-9.3,0
		c-2.8,0-5,2.2-5,5s2.2,5,5,5l9.3,0c0.1,0,0.1,0,0.2,0c0.2,0,0.3,0.1,0.5,0.2c0.2,0.1,0.3,0.3,0.3,0.5v7.6c0,0.4-0.3,0.7-0.7,0.7
		H9.7c-1.8,0-3.3-1.5-3.3-3.3V11.4c0-0.4,0.3-0.7,0.7-0.7c0.4,0,0.7,0.3,0.7,0.7c0,1,0.8,1.9,1.9,1.9h32.1c0.4,0,0.7,0.3,0.7,0.7
		V22.2z M25.9,27.9c0-3.5,2.9-6.4,6.4-6.4h8.3c0.3,0,0.5-0.2,0.5-0.5v-5.8c0-0.3-0.2-0.5-0.5-0.5H9.7c-0.4,0-0.8-0.1-1.2-0.2
		c-0.1,0-0.1,0-0.2,0c-0.1,0-0.2,0-0.3,0.1c-0.1,0.1-0.2,0.2-0.2,0.4v23.6c0,1,0.8,1.9,1.9,1.9h30.9c0.3,0,0.5-0.2,0.5-0.5v-5.1
		c0-0.3-0.2-0.5-0.5-0.5h-8.3C28.8,34.3,25.9,31.4,25.9,27.9z"/>
	<path class="st2" d="M43.6,32.3c0,1-0.7,1.8-1.7,2c-0.1,0-0.2,0-0.3,0h-9.3c-3.5,0-6.4-2.9-6.4-6.4s2.9-6.4,6.4-6.4h9.3
		c0.1,0,0.2,0,0.3,0c1,0.2,1.7,1,1.7,2V32.3z M27.3,27.9c0,2.8,2.2,5,5,5l9.3,0c0.4,0,0.6-0.3,0.6-0.6v-8.8c0-0.3-0.2-0.5-0.5-0.6
		c0,0-0.1,0-0.1,0c0,0-0.1,0-0.1,0l-9.3,0C29.6,22.9,27.3,25.1,27.3,27.9z"/>
	<path class="st1" d="M42.4,18c0,0.3-0.3,0.6-0.6,0.6H9.7c-1.7,0-3.2-1.4-3.2-3.2c0-0.3,0.3-0.6,0.6-0.6c0.3,0,0.6,0.3,0.6,0.6
		c0,1.1,0.9,2,2,2h32.1C42.1,17.4,42.4,17.7,42.4,18z"/>
	<path class="st1" d="M42.4,37.5c0,0.3-0.3,0.6-0.6,0.6H9.7c-1.7,0-3.2-1.4-3.2-3.2c0-0.3,0.3-0.6,0.6-0.6c0.3,0,0.6,0.3,0.6,0.6
		c0,1.1,0.9,2,2,2h32.1C42.1,36.9,42.4,37.2,42.4,37.5z"/>
	<path class="st3" d="M27.3,27.9c0,2.8,2.2,5,5,5l9.3,0c0.4,0,0.6-0.3,0.6-0.6v-8.8c0-0.3-0.2-0.5-0.5-0.6c0,0-0.1,0-0.1,0
		c0,0-0.1,0-0.1,0l-9.3,0C29.6,22.9,27.3,25.1,27.3,27.9z"/>
	<path class="st2" d="M34.9,27.8c0,1.6-1.3,2.9-2.9,2.9c-1.6,0-2.9-1.3-2.9-2.9c0-1.6,1.3-2.9,2.9-2.9
		C33.6,24.9,34.9,26.2,34.9,27.8z M30.4,27.8c0,0.9,0.8,1.7,1.7,1.7c0.9,0,1.7-0.8,1.7-1.7S33,26.1,32,26.1
		C31.1,26.1,30.4,26.9,30.4,27.8z"/>
</g>
</svg>
