<?xml version="1.0" encoding="utf-8"?>
<!-- Generator: Adobe Illustrator 22.0.1, SVG Export Plug-In . SVG Version: 6.00 Build 0)  -->
<svg version="1.1" id="Layer_1" xmlns="http://www.w3.org/2000/svg" xmlns:xlink="http://www.w3.org/1999/xlink" x="0px" y="0px"
	 viewBox="0 0 50 50" style="enable-background:new 0 0 50 50;" xml:space="preserve">
<style type="text/css">
	.st0{fill:#FFFFFF;}
	.st1{fill:#EDEDED;}
	.st2{fill:#00AAE4;}
	.st3{fill:#3F3B39;}
</style>
<g>
	<g>
		<path class="st0" d="M32.2,15.9c-2.9,0-5.3,2.4-5.3,5.3c0,2.9,2.4,5.3,5.3,5.3c2.9,0,5.3-2.4,5.3-5.3
			C37.5,18.3,35.1,15.9,32.2,15.9z"/>
		<path class="st1" d="M37.9,31.3c-0.1,0-0.2,0-0.3,0.1c-0.2,0.1-0.3,0.3-0.3,0.5l0,3.6c0,0.5-0.1,0.9-0.5,1.3l-2.8,2.8
			C34,39.7,33.9,40,34,40.2c0.1,0.2,0.3,0.3,0.5,0.3h8.7c0.2,0,0.3-0.1,0.4-0.2c0.1-0.1,0.2-0.3,0.1-0.4c-0.4-3.6-2.5-6.7-5.6-8.5
			C38.1,31.4,38,31.3,37.9,31.3z M26.4,31.3c-0.1,0-0.2,0-0.3,0.1c-3.2,1.8-5.2,4.9-5.6,8.5c0,0.2,0,0.3,0.1,0.4
			c0.1,0.1,0.3,0.2,0.4,0.2h8.7c0.2,0,0.4-0.1,0.5-0.3c0.1-0.2,0-0.4-0.1-0.6l-2.8-2.8C27.1,36.5,27,36,27,35.6l0-3.6
			c0-0.2-0.1-0.4-0.3-0.5C26.6,31.4,26.5,31.3,26.4,31.3z"/>
	</g>
	<path class="st0" d="M17.9,17.2c-2.3,0-4.1,1.8-4.1,4.1s1.8,4.1,4.1,4.1s4.1-1.8,4.1-4.1S20.1,17.2,17.9,17.2z"/>
	<path class="st2" d="M33.3,36.2c0,0.1,0,0.1-0.1,0.2l-1,1c0,0.1-0.1,0.1-0.2,0l-1-1c0,0-0.1-0.1-0.1-0.2l0.6-5.4
		c0-0.1,0.1-0.2,0.2-0.2h0.8c0.1,0,0.2,0.1,0.2,0.2L33.3,36.2z"/>
	<path class="st2" d="M31.3,29.4l0.1,0.7c0,0.1,0.1,0.2,0.2,0.2h1.1c0.1,0,0.2-0.1,0.2-0.2l0.1-0.7c0-0.1,0-0.2-0.2-0.2l-0.7-0.2
		c0,0-0.1,0-0.1,0l-0.7,0.2C31.3,29.1,31.3,29.2,31.3,29.4z"/>
	<path class="st3" d="M32.2,28.1c-3.8,0-6.8-3.1-6.8-6.8c0-3.8,3.1-6.8,6.8-6.8c3.8,0,6.8,3.1,6.8,6.8C39,25,36,28.1,32.2,28.1z
		 M32.2,15.9c-2.9,0-5.3,2.4-5.3,5.3c0,2.9,2.4,5.3,5.3,5.3c2.9,0,5.3-2.4,5.3-5.3C37.5,18.3,35.1,15.9,32.2,15.9z"/>
	<path class="st3" d="M19.1,42c-0.1,0-0.2-0.1-0.2-0.2v-0.6c0-5.2,3-9.7,7.7-11.8c0.5-0.2,1.1-0.4,1.6-0.6l0.1,0
		c0.1,0,0.2,0.1,0.2,0.2l0,6.4c0,0.1,0,0.2,0.1,0.3l3.2,3.2c0.1,0.1,0.2,0.2,0.4,0.2s0.3-0.1,0.4-0.2l3.2-3.2
		c0.1-0.1,0.1-0.2,0.1-0.3l0-6.4c0-0.1,0.1-0.2,0.2-0.2c0,0,0,0,0.1,0c0.5,0.2,1.1,0.4,1.6,0.6c4.8,2.1,7.7,6.6,7.7,11.8v0.6
		c0,0.1-0.1,0.2-0.2,0.2H19.1z M37.9,31.3c-0.1,0-0.2,0-0.3,0.1c-0.2,0.1-0.3,0.3-0.3,0.5l0,3.6c0,0.5-0.1,0.9-0.5,1.3l-2.8,2.8
		C34,39.7,33.9,40,34,40.2c0.1,0.2,0.3,0.3,0.5,0.3h8.7c0.2,0,0.3-0.1,0.4-0.2c0.1-0.1,0.2-0.3,0.1-0.4c-0.4-3.6-2.5-6.7-5.6-8.5
		C38.1,31.4,38,31.3,37.9,31.3z M26.4,31.3c-0.1,0-0.2,0-0.3,0.1c-3.2,1.8-5.2,4.9-5.6,8.5c0,0.2,0,0.3,0.1,0.4
		c0.1,0.1,0.3,0.2,0.4,0.2h8.7c0.2,0,0.4-0.1,0.5-0.3c0.1-0.2,0-0.4-0.1-0.6l-2.8-2.8C27.1,36.4,27,36,27,35.6l0-3.6
		c0-0.2-0.1-0.4-0.3-0.5C26.6,31.4,26.5,31.3,26.4,31.3z"/>
	<path class="st3" d="M17.9,26.6c-2.9,0-5.3-2.4-5.3-5.3s2.4-5.3,5.3-5.3s5.3,2.4,5.3,5.3S20.8,26.6,17.9,26.6z M17.9,17.2
		c-2.3,0-4.1,1.8-4.1,4.1s1.8,4.1,4.1,4.1s4.1-1.8,4.1-4.1S20.1,17.2,17.9,17.2z"/>
	<g>
		<path class="st3" d="M20.1,32.2c0.2,0,0.4-0.1,0.5-0.1c1-1.2,2.2-2.3,3.6-3.1l-0.3-0.3L23.5,29c-1.3,0.9-2.7,1.5-4.2,1.7l-0.6,0.1
			V33H17v-2.2l-0.6-0.1c-1.5-0.2-3-0.9-4.2-1.8l-0.5-0.4l-1.5,1.5L8.9,29l1.6-1.6l-0.4-0.5c-0.9-1.2-1.5-2.7-1.7-4.2L8.3,22H6.1
			v-1.6h2.2l0.1-0.6c0.2-1.5,0.8-2.9,1.8-4.2l0.4-0.5L9,13.5l1.2-1.2l1.6,1.6l0.5-0.4c1.2-0.9,2.7-1.5,4.2-1.7l0.6-0.1V9.5h1.6v2.2
			l0.6,0.1c1.5,0.2,3,0.8,4.2,1.7l0.5,0.4l1.6-1.6l1.2,1.2l-1.6,1.6l0.4,0.5c0.1,0.1,0.1,0.1,0.1,0.2c0.8-1,1.9-1.8,3.1-2.3
			l-3.3-3.3L23.9,12c-1.1-0.7-2.4-1.2-3.7-1.5V8h-4.7v2.5c-1.3,0.3-2.5,0.8-3.7,1.5l-1.8-1.8l-3.3,3.3l1.7,1.7
			c-0.7,1.1-1.3,2.4-1.5,3.7H4.6v4.7H7c0.3,1.3,0.8,2.6,1.5,3.7L6.8,29l3.3,3.3l1.7-1.7c1.1,0.7,2.4,1.3,3.7,1.6v2.4H19
			c0.3-0.6,0.7-1.3,1.2-1.8V32.2z"/>
	</g>
</g>
</svg>
