<?xml version="1.0" encoding="utf-8"?>
<!-- Generator: Adobe Illustrator 22.0.1, SVG Export Plug-In . SVG Version: 6.00 Build 0)  -->
<svg version="1.1" id="Layer_1" xmlns="http://www.w3.org/2000/svg" xmlns:xlink="http://www.w3.org/1999/xlink" x="0px" y="0px"
	 viewBox="0 0 50 50" style="enable-background:new 0 0 50 50;" xml:space="preserve">
<g>
	<path d="M24.5,33.5c0.2,0.3,0.7,0.3,0.9,0l6.3-8.1c0.3-0.4,0-0.9-0.5-0.9h-3.6V9.7c0-0.7-0.5-1.2-1.2-1.2h-2.9
		c-0.7,0-1.2,0.5-1.2,1.2v14.8h-3.6c-0.5,0-0.7,0.5-0.5,0.9L24.5,33.5z"/>
	<path d="M41.6,31.1h-0.7c-0.7,0-1.2,0.5-1.2,1.2v6.1H10.3v-6.1c0-0.7-0.5-1.2-1.2-1.2H8.4c-0.7,0-1.2,0.5-1.2,1.2v7.3v0.7
		c0,0.7,0.5,1.2,1.2,1.2h0.7h31.9h0.7c0.7,0,1.2-0.5,1.2-1.2v-0.7v-7.3C42.8,31.6,42.3,31.1,41.6,31.1z"/>
</g>
</svg>
