<?xml version="1.0" encoding="utf-8"?>
<!-- Generator: Adobe Illustrator 22.0.1, SVG Export Plug-In . SVG Version: 6.00 Build 0)  -->
<svg version="1.1" id="Layer_1" xmlns="http://www.w3.org/2000/svg" xmlns:xlink="http://www.w3.org/1999/xlink" x="0px" y="0px"
	 viewBox="0 0 50 50" style="enable-background:new 0 0 50 50;" xml:space="preserve">
<style type="text/css">
	.st0{fill:#221F1F;}
</style>
<path class="st0" d="M44.7,42c-0.1-0.8-0.5-1.6-1.1-2.2L36,32.2l-1.4,1.4l-1.3-1.3c5.3-6.2,5.1-15.7-0.8-21.6
	C26.3,4.5,16.2,4.4,10,10.6c-3,3-4.7,7-4.7,11.3c0,4.3,1.6,8.3,4.6,11.3c3,3,7,4.7,11.3,4.7h0.1c3.8,0,7.4-1.3,10.3-3.8l1.3,1.3
	l-1.4,1.4l7.6,7.7c0.6,0.6,1.4,1,2.2,1.1l0,0c0.2,0,0.3,0,0.5,0c0.7,0,1.4-0.3,1.9-0.8l0.5-0.5C44.6,43.8,44.9,43,44.7,42z
	 M42.1,42.6L41.7,43c0,0-0.1,0-0.2,0c-0.2,0-0.5-0.2-0.7-0.4l-5.8-5.8l0.9-0.9l5.8,5.8c0.2,0.2,0.4,0.5,0.4,0.7
	C42.1,42.5,42.1,42.6,42.1,42.6z M11.8,12.5c2.5-2.5,5.8-3.9,9.4-3.9c3.6,0,6.9,1.4,9.5,3.9c2.5,2.5,3.9,5.9,3.9,9.4
	c0,3.6-1.4,6.9-3.9,9.4c-2.5,2.5-5.9,3.9-9.4,3.9c-3.6,0-6.9-1.4-9.4-3.9c-2.5-2.5-3.9-5.9-3.9-9.4C7.9,18.3,9.3,15,11.8,12.5
	L11.8,12.5z"/>
</svg>
