<?xml version="1.0" encoding="utf-8"?>
<!-- Generator: Adobe Illustrator 22.0.1, SVG Export Plug-In . SVG Version: 6.00 Build 0)  -->
<svg version="1.1" id="Layer_1" xmlns="http://www.w3.org/2000/svg" xmlns:xlink="http://www.w3.org/1999/xlink" x="0px" y="0px"
	 viewBox="0 0 50 50" style="enable-background:new 0 0 50 50;" xml:space="preserve">
<style type="text/css">
	.st0{fill:#EDEDED;}
	.st1{fill:#333333;}
	.st2{fill:#FFFFFF;}
	.st3{fill:#00AAE4;}
</style>
<g>
	<g>
		<path class="st0" d="M45,12.8c0-1.6-1.3-2.9-2.9-2.9H8C6.4,9.8,5,11.2,5,12.8v5.4H45V12.8z"/>
		<path class="st1" d="M45.7,19H4.3v-6.2c0-2.1,1.7-3.7,3.7-3.7h34c2.1,0,3.7,1.7,3.7,3.7V19z M5.8,17.4h38.4v-4.7
			c0-1.2-1-2.2-2.2-2.2H8c-1.2,0-2.2,1-2.2,2.2V17.4z"/>
	</g>
	<g>
		<path class="st2" d="M5,18.2v21.2C5,41,6.4,42.3,8,42.3h34c1.6,0,2.9-1.3,2.9-2.9V18.2H5z"/>
		<path class="st1" d="M42,43.1H8c-2.1,0-3.7-1.7-3.7-3.7V17.4h41.5v21.9C45.7,41.5,44.1,43.1,42,43.1z M5.8,19v20.4
			c0,1.2,1,2.2,2.2,2.2h34c1.2,0,2.2-1,2.2-2.2V19H5.8z"/>
	</g>
	<g>
		<g>
			<path class="st3" d="M16.3,28.6h-5.1c-0.1,0-0.2-0.1-0.2-0.2v-3.3v-1.2c0-0.1,0.1-0.2,0.2-0.2h5.1c0.1,0,0.2,0.1,0.2,0.2v4.6
				C16.6,28.5,16.5,28.6,16.3,28.6z"/>
			<path class="st3" d="M16.3,36.8h-5.1c-0.1,0-0.2-0.1-0.2-0.2v-3.3V32c0-0.1,0.1-0.2,0.2-0.2h5.1c0.1,0,0.2,0.1,0.2,0.2v4.6
				C16.6,36.7,16.5,36.8,16.3,36.8z"/>
		</g>
		<g>
			<path class="st3" d="M27.6,28.6h-5.1c-0.1,0-0.2-0.1-0.2-0.2v-3.3v-1.2c0-0.1,0.1-0.2,0.2-0.2h5.1c0.1,0,0.2,0.1,0.2,0.2v4.6
				C27.8,28.5,27.7,28.6,27.6,28.6z"/>
			<path class="st3" d="M27.6,36.8h-5.1c-0.1,0-0.2-0.1-0.2-0.2v-3.3V32c0-0.1,0.1-0.2,0.2-0.2h5.1c0.1,0,0.2,0.1,0.2,0.2v4.6
				C27.8,36.7,27.7,36.8,27.6,36.8z"/>
		</g>
		<g>
			<path class="st3" d="M38.8,28.6h-5.1c-0.1,0-0.2-0.1-0.2-0.2v-3.3v-1.2c0-0.1,0.1-0.2,0.2-0.2h5.1c0.1,0,0.2,0.1,0.2,0.2v4.6
				C39,28.5,38.9,28.6,38.8,28.6z"/>
			<path class="st3" d="M38.8,36.8h-5.1c-0.1,0-0.2-0.1-0.2-0.2v-3.3V32c0-0.1,0.1-0.2,0.2-0.2h5.1c0.1,0,0.2,0.1,0.2,0.2v4.6
				C39,36.7,38.9,36.8,38.8,36.8z"/>
		</g>
	</g>
	<g>
		<path class="st3" d="M14.9,12.9h-0.2c-0.7,0-1.2-0.5-1.2-1.2V8.1c0-0.7,0.5-1.2,1.2-1.2h0.2c0.7,0,1.2,0.5,1.2,1.2v3.7
			C16.1,12.4,15.5,12.9,14.9,12.9z"/>
		<path class="st3" d="M35.4,12.9h-0.2c-0.7,0-1.2-0.5-1.2-1.2V8.1c0-0.7,0.5-1.2,1.2-1.2h0.2c0.7,0,1.2,0.5,1.2,1.2v3.7
			C36.5,12.4,36,12.9,35.4,12.9z"/>
	</g>
</g>
</svg>
