<?xml version="1.0" encoding="utf-8"?>
<!-- Generator: Adobe Illustrator 22.0.1, SVG Export Plug-In . SVG Version: 6.00 Build 0)  -->
<svg version="1.1" id="Layer_1" xmlns="http://www.w3.org/2000/svg" xmlns:xlink="http://www.w3.org/1999/xlink" x="0px" y="0px"
	 viewBox="0 0 50 50" style="enable-background:new 0 0 50 50;" xml:space="preserve">
<style type="text/css">
	.st0{fill:#FFFFFF;}
	.st1{fill:#EDEDED;}
	.st2{fill:#00AAE4;}
	.st3{fill:#3F3B39;}
</style>
<g>
	<path class="st0" d="M38.1,28.4c-0.7,0-1.5,0.1-2.1,0.4c-0.4,0.2-0.8,0-1.1-0.4c-1.3-2.2-3.7-3.6-6.3-3.6c-3.1,0-5.9,2-6.9,5
		c-0.1,0.4-0.6,0.7-1,0.5c-0.4-0.1-0.9-0.2-1.3-0.2c-2.6,0-4.7,2.1-4.7,4.7s2.1,4.7,4.7,4.7h18.8c3.1,0,5.6-2.5,5.6-5.6
		C43.7,30.9,41.2,28.4,38.1,28.4z"/>
	<path class="st1" d="M19.9,27.7c1.8-4.1,5.5-5.2,6.4-5.4c-1-1.6-2.8-2.6-4.9-2.6c-3.2,0-5.8,2.6-5.8,5.8c0,0.9,0.2,1.8,0.6,2.6
		C17.8,27.6,19.9,27.7,19.9,27.7z"/>
	<path class="st2" d="M13.8,25.6c0-0.5-0.4-0.8-0.8-0.8H5.4c-0.5,0-0.8,0.4-0.8,0.8c0,0.5,0.4,0.8,0.8,0.8H13
		C13.4,26.4,13.8,26,13.8,25.6z"/>
	<path class="st2" d="M12.7,34.2c-0.3-0.3-0.9-0.3-1.2,0L9.6,36c-0.3,0.3-0.3,0.9,0,1.2c0.3,0.3,0.9,0.3,1.2,0l1.9-1.8
		C13,35,13,34.5,12.7,34.2z"/>
	<path class="st2" d="M21.4,17.9c0.5,0,0.8-0.4,0.8-0.8V9.6c0-0.5-0.4-0.8-0.8-0.8c-0.5,0-0.8,0.4-0.8,0.8v7.5
		C20.6,17.6,21,17.9,21.4,17.9z"/>
	<path class="st2" d="M14.8,20.2c0.2,0.2,0.4,0.2,0.6,0.2c0.2,0,0.4-0.1,0.6-0.2c0.3-0.3,0.3-0.9,0-1.2l-5.3-5.3
		c-0.3-0.3-0.9-0.3-1.2,0c-0.3,0.3-0.3,0.9,0,1.2L14.8,20.2z"/>
	<path class="st2" d="M27.5,20.3c0.2,0,0.4-0.1,0.6-0.2l5.2-5.2c0.3-0.3,0.3-0.9,0-1.2c-0.3-0.3-0.9-0.3-1.2,0l-5.2,5.2
		c-0.3,0.3-0.3,0.9,0,1.2C27.1,20.3,27.3,20.3,27.5,20.3z"/>
	<path class="st3" d="M13,35.3c0.2,3.3,3,6,6.4,6h18.8c4,0,7.3-3.3,7.3-7.3c0-4-3.3-7.3-7.3-7.3c-0.7,0-1.4,0.1-2.1,0.3
		c-1.7-2.4-4.5-3.9-7.4-3.9c-0.6,0-1.2,0.1-1.8,0.2c0,0-4.4,0.7-6.3,5.2c0,0-2.3-0.1-3.8,0.5c-2.1,0.9-3.5,2.9-3.8,5.2
		C13,34.2,12.9,35.1,13,35.3z M38.1,39.6H19.3c-2.6,0-4.7-2.1-4.7-4.7s2.1-4.7,4.7-4.7c0.4,0,0.9,0.1,1.3,0.2c0.4,0.1,0.9-0.1,1-0.5
		c1-3,3.8-5,6.9-5c2.6,0,5,1.4,6.3,3.6c0.2,0.4,0.7,0.5,1.1,0.4c0.7-0.3,1.4-0.4,2.1-0.4c3.1,0,5.6,2.5,5.6,5.6
		C43.7,37.1,41.2,39.6,38.1,39.6z"/>
</g>
</svg>
