<svg xmlns="http://www.w3.org/2000/svg" viewBox="0 0 85.25 85.25"><defs><style>.cls-1{fill:#e0e0e0;}</style></defs><title>Asset 1</title><g id="Layer_2" data-name="Layer 2"><g id="Layer_5" data-name="Layer 5"><path class="cls-1" d="M36.29,61.05a3.16,3.16,0,0,1-2.23-.92l-14-14a3.16,3.16,0,0,1,0-4.46,3.21,3.21,0,0,1,4.46,0L36.29,53.45,60.73,29a3.15,3.15,0,0,1,4.46,4.46L38.52,60.13A3.15,3.15,0,0,1,36.29,61.05Z"/><path class="cls-1" d="M61.44,29.71,36.29,54.86,23.81,42.38a2.21,2.21,0,0,0-3,0,2.15,2.15,0,0,0,0,3l14,14a2.13,2.13,0,0,0,1.52.63,2.1,2.1,0,0,0,1.52-.63L64.48,32.75a2.15,2.15,0,0,0,0-3A2.21,2.21,0,0,0,61.44,29.71Z"/><path class="cls-1" d="M42.63,85.25A42.63,42.63,0,1,1,85.25,42.63,42.67,42.67,0,0,1,42.63,85.25Zm0-79A36.36,36.36,0,1,0,79,42.63,36.4,36.4,0,0,0,42.63,6.27Z"/><path class="cls-1" d="M42.63,1A41.63,41.63,0,1,0,84.25,42.63,41.67,41.67,0,0,0,42.63,1Zm0,79A37.36,37.36,0,1,1,80,42.63,37.4,37.4,0,0,1,42.63,80Z"/></g></g></svg>