<svg xmlns="http://www.w3.org/2000/svg" viewBox="0 0 85.26 85.26"><defs><style>.cls-1{fill:#0aa1df;}</style></defs><title>Asset 1</title><g id="Layer_2" data-name="Layer 2"><g id="Layer_1-2" data-name="Layer 1"><g id="Layer_2-2" data-name="Layer 2"><g id="Layer_5" data-name="Layer 5"><path class="cls-1" d="M36.3,61.06a3.15,3.15,0,0,1-2.23-.92l-14-14a3.16,3.16,0,0,1,0-4.46,3.21,3.21,0,0,1,4.46,0L36.3,53.46,60.74,29a3.15,3.15,0,0,1,4.46,4.46L38.53,60.14A3.15,3.15,0,0,1,36.3,61.06Z"/><path class="cls-1" d="M61.45,29.72,36.3,54.87,23.82,42.39a2.22,2.22,0,0,0-3,0,2.16,2.16,0,0,0,0,3l14,14a2.12,2.12,0,0,0,1.52.63,2.08,2.08,0,0,0,1.52-.63L64.49,32.76a2.16,2.16,0,0,0,0-3A2.21,2.21,0,0,0,61.45,29.72Z"/><path class="cls-1" d="M42.64,85.26A42.63,42.63,0,1,1,85.26,42.62v0A42.67,42.67,0,0,1,42.64,85.26Zm0-79A36.36,36.36,0,1,0,79,42.64,36.36,36.36,0,0,0,42.64,6.26Z"/><path class="cls-1" d="M42.64,1A41.63,41.63,0,1,0,84.26,42.65h0A41.67,41.67,0,0,0,42.64,1Zm0,79A37.36,37.36,0,1,1,80,42.64,37.36,37.36,0,0,1,42.64,80Z"/></g></g></g></g></svg>