<?xml version="1.0" encoding="utf-8"?>
<!-- Generator: Adobe Illustrator 22.0.0, SVG Export Plug-In . SVG Version: 6.00 Build 0)  -->
<svg version="1.1" id="Layer_1" xmlns="http://www.w3.org/2000/svg" xmlns:xlink="http://www.w3.org/1999/xlink" x="0px" y="0px"
	 viewBox="0 0 831.6 90.9" style="enable-background:new 0 0 831.6 90.9;" xml:space="preserve">
<style type="text/css">
	.st0{fill:#333332;}
	.st1{fill:#12A9E2;}
	.st2{fill:url(#SVGID_1_);}
	.st3{fill:#231F20;}
</style>
<path class="st0" d="M244.4,4.6h-5.1h-43.8h-19.3v19.3v63h19.3V55.3h43.8v31.5h19.3v-63v-5.1C258.6,10.9,252.2,4.6,244.4,4.6z
	 M239.3,36.1h-43.8V23.8h43.8V36.1z"/>
<path class="st0" d="M156.4,4.6h-5.1h-43.7H88.3v19.3v63h19.3v-63h12.3v63h19.2v-63h12.3v63h19.3v-63v-5.1
	C170.6,10.9,164.2,4.6,156.4,4.6z"/>
<path class="st0" d="M332.4,4.6h-5.1h-43.8h-19.3v19.3v63h19.3V55.3h43.8h19.3V23.8v-5.1C346.6,10.9,340.2,4.6,332.4,4.6z
	 M327.3,36.1h-43.8V23.8h43.8V36.1z"/>
<polygon class="st1" points="82.6,23.8 82.6,4.6 19.6,4.6 0.3,4.6 0.3,23.8 0.3,67.6 0.3,86.8 19.6,86.8 82.6,86.8 82.6,67.6 
	19.6,67.6 19.6,23.8 "/>
<linearGradient id="SVGID_1_" gradientUnits="userSpaceOnUse" x1="46.5761" y1="77.2051" x2="82.5833" y2="77.2051">
	<stop  offset="0" style="stop-color:#12A9E2"/>
	<stop  offset="1" style="stop-color:#0275B9"/>
</linearGradient>
<rect x="46.6" y="67.6" class="st2" width="36" height="19.3"/>
<g>
	<path class="st3" d="M405.8,18.9c-3.9,0.2-11,0.2-17.9,0.2h-7.2v-8.9h12.1c7.8,0,15.8,0,25.3-0.2c-1.5,21.8-13.3,38.5-36.4,47
		l-6.3-7.7C394.1,43,404.4,32.3,405.8,18.9z M441.9,83.6h-52V59.3h10.6v15.3h41.5V83.6z M416.2,39.1V30h13.5V5.6h10.6v58.5h-10.6
		v-25H416.2z"/>
	<path class="st3" d="M482.5,7c0.2,4.8-0.3,9.2-1.4,13c4.4,7.3,10.6,13,20.8,17.5l-6.4,7c-8.2-3.5-14.2-8.3-18.8-14.4
		c-4.5,7-11.2,12.3-19.2,16.3l-7.2-6.7C465.2,32,472.7,23.6,471.6,7H482.5z M518.5,84.3h-52.4V62h40.3v-4.6h-40.3v-8.8h50.8v22.1
		h-40.4v4.9h42V84.3z M492,28.1v-8.5h14.3V5.6h10.6v39.7h-10.6V28.1H492z"/>
	<path class="st3" d="M553.4,28.6v15.9c8.3-0.3,17.1-0.9,24.6-1.9v8.7c-12,1.6-27.7,2.5-40.3,2.5h-10.8v-8.9h10.7
		c1.7,0,3.6,0,5.5-0.1V28.6H553.4z M572.6,9.5c-0.3,10.1-1,20.5-2.9,29.5h-10.4c1.9-8.6,2.7-14.9,2.8-20.7h-29.4V9.5H572.6z
		 M592.1,83.6h-52.6V61.4h10.7v13.1h41.9V83.6z M580.4,67.1V5.6h10.5v26.3h11v9.1h-11v26.2H580.4z"/>
	<path class="st3" d="M619,57.9h8.2c10.3,0,20.7-1.5,29.2-3.4v8.8c-7.8,2-20.7,3.6-31.7,3.6h-16.4V34.1h25.2V20.8h-25.2v-9h36.1V43
		H619V57.9z M659.4,5.6h10.6v79.6h-10.6V5.6z"/>
	<path class="st3" d="M715.2,40.5c5.2,7.4,11.5,13.9,19.4,19.1l-7.4,7.6c-7-5.2-12.6-11.2-17.7-18.1c-6,8.2-13.7,15.4-22.1,20.4
		l-7.2-7c19.9-11.5,30.1-29.9,31.2-41.4c-5.6,0.2-11.2,0.2-16.7,0.2h-9v-9.1h13.5c7.1,0,14.6-0.1,24.2-0.2
		C723.2,21.8,720.2,31.6,715.2,40.5z M736,5.6h10.6v79.6H736V5.6z"/>
	<path class="st3" d="M768.1,50.7V12h51.4v9.1h-40.7v20.6h41.4v9h-20.5v14.4H831V74h-74.5v-8.8h32.4V50.7H768.1z"/>
</g>
</svg>
