<?xml version="1.0" encoding="utf-8"?>
<!-- Generator: Adobe Illustrator 22.0.1, SVG Export Plug-In . SVG Version: 6.00 Build 0)  -->
<svg version="1.1" id="Layer_5" xmlns="http://www.w3.org/2000/svg" xmlns:xlink="http://www.w3.org/1999/xlink" x="0px" y="0px"
	 viewBox="0 0 145.6 126.2" style="enable-background:new 0 0 145.6 126.2;" xml:space="preserve">
<style type="text/css">
	.st0{fill:#FFFFFF;}
	.st1{fill:#686868;}
	.st2{fill:#2D2D2D;}
</style>
<g>
	<g>
		<polygon id="XMLID_1_" class="st0" points="72.8,117.8 135.9,117.8 104.4,63.1 72.8,8.4 41.2,63.1 9.7,117.8 		"/>
		<path class="st1" d="M135.9,122.3H9.7c-1.6,0-3.1-0.9-3.9-2.3c-0.8-1.4-0.8-3.1,0-4.5L68.9,6.2c0.8-1.4,2.3-2.3,3.9-2.3
			s3.1,0.9,3.9,2.3l63.1,109.3c0.8,1.4,0.8,3.1,0,4.5C139,121.4,137.5,122.3,135.9,122.3z M17.5,113.3h110.7L72.8,17.4L17.5,113.3z"
			/>
	</g>
	<g id="XMLID_3982_">
		<path id="XMLID_3983_" class="st2" d="M69.5,84.6l-1.2-37.3h9l-1.2,37.3H69.5z M68.6,90.7H77V99h-8.4V90.7z"/>
	</g>
</g>
</svg>
